<svg xmlns="http://www.w3.org/2000/svg" width="80" height="80" viewBox="0 0 80 80" fill="none">
  <path d="M33.7143 20.1429V34.35C33.7143 38.575 37.1393 42 41.3643 42H67.35C71.575 42 75 38.575 75 34.35V20.1429M33.7143 20.1429V15.65C33.7143 11.425 37.1393 8 41.3643 8H67.35C71.575 8 75 11.425 75 15.65V20.1429M33.7143 20.1429H75" stroke="#204D5D" stroke-width="1.5" stroke-linecap="round"/>
  <path d="M25.2143 15.2856H21.9357C17.7107 15.2856 14.2857 18.7107 14.2857 22.9356V29.8571M14.2857 29.8571L20.3572 23.7856M14.2857 29.8571L8.21429 23.7856" stroke="#BCCACE" stroke-width="1.5" stroke-linecap="round" stroke-linejoin="round"/>
  <path d="M58 68.7144H61.2786C65.5035 68.7144 68.9286 65.2893 68.9286 61.0644V54.1429M68.9286 54.1429L62.8571 60.2144M68.9286 54.1429L75 60.2144" stroke="#C9F0F8" stroke-width="1.5" stroke-linecap="round" stroke-linejoin="round"/>
  <path d="M21.5714 42H14.65C10.425 42 7 45.425 7 49.65V52.9286M48.2857 59V68.35C48.2857 72.575 44.8607 76 40.6357 76H14.65C10.425 76 7 72.575 7 68.35V52.9286M7 52.9286H32.5" stroke="#204D5D" stroke-width="1.5" stroke-linecap="round"/>
</svg>