<svg width="617" height="419" viewBox="0 0 617 419" fill="none" xmlns="http://www.w3.org/2000/svg">
<g filter="url(#filter0_d_2_908)">
<path d="M25 47.1012C25 39.013 25 34.9689 26.5741 31.8796C27.9587 29.1622 30.168 26.9528 32.8854 25.5683C35.9747 23.9942 40.0188 23.9942 48.107 23.9942H845.409C853.497 23.9942 857.541 23.9942 860.631 25.5683C863.348 26.9528 865.557 29.1622 866.942 31.8796C868.516 34.9689 868.516 39.013 868.516 47.1012V537.893C868.516 545.981 868.516 550.025 866.942 553.115C865.557 555.832 863.348 558.041 860.631 559.426C857.541 561 853.497 561 845.409 561H48.107C40.0188 561 35.9747 561 32.8854 559.426C30.168 558.041 27.9587 555.832 26.5741 553.115C25 550.025 25 545.981 25 537.893V47.1012Z" fill="white" shape-rendering="crispEdges"/>
<rect x="142.7" y="152.728" width="34.3291" height="240.304" rx="17.1646" fill="#FAFAFA"/>
<rect x="189.289" y="152.728" width="34.3291" height="240.304" rx="17.1646" fill="#FAFAFA"/>
<rect x="235.879" y="152.728" width="34.3291" height="240.304" rx="17.1646" fill="#FAFAFA"/>
<rect x="282.469" y="152.728" width="34.3291" height="240.304" rx="17.1646" fill="#FAFAFA"/>
<rect x="329.058" y="152.728" width="34.3291" height="240.304" rx="17.1646" fill="#FAFAFA"/>
<rect opacity="0.04" x="375.648" y="152.728" width="34.3291" height="240.304" rx="17.1646" fill="#FAFAFA"/>
<rect x="422.237" y="152.728" width="34.3291" height="240.304" rx="17.1646" fill="#FAFAFA"/>
<rect x="468.827" y="152.728" width="34.3291" height="240.304" rx="17.1646" fill="#FAFAFA"/>
<rect x="515.416" y="152.728" width="34.3291" height="240.304" rx="17.1646" fill="#FAFAFA"/>
<rect x="562.006" y="152.728" width="34.3291" height="240.304" rx="17.1646" fill="#FAFAFA"/>
<rect x="608.595" y="152.728" width="34.3291" height="240.304" rx="17.1646" fill="#FAFAFA"/>
<rect x="64.2333" y="63.2275" width="49.0416" height="49.0416" rx="24.5208" fill="#C9F0F8"/>
<path opacity="0.8" d="M103.467 87.7483C103.467 95.8696 96.8754 102.461 88.7541 102.461C80.6328 102.461 74.0416 95.8696 74.0416 87.7483C74.0416 79.627 80.6328 73.0358 88.7541 73.0358C96.8754 73.0358 103.467 79.627 103.467 87.7483Z" fill="#003446"/>
<path d="M93.6583 91.4264L89.0005 88.7649C88.1892 88.3046 87.5281 87.1968 87.5281 86.2905V80.3921" stroke="#C9F0F8" stroke-width="1.83906" stroke-linecap="round" stroke-linejoin="round"/>
<path d="M147.138 81.9841H141.633V97.2483H138.777V81.9841H133.259V79.5933H147.138V81.9841ZM154.338 89.5856C154.338 89.1442 154.272 88.7355 154.142 88.3595C154.019 87.9754 153.835 87.6443 153.59 87.3664C153.345 87.0803 153.038 86.8597 152.67 86.7044C152.311 86.5409 151.894 86.4591 151.42 86.4591C150.463 86.4591 149.711 86.733 149.164 87.2806C148.616 87.8282 148.269 88.5965 148.122 89.5856H154.338ZM148.048 91.2039C148.081 91.915 148.191 92.5321 148.379 93.0552C148.567 93.5702 148.816 93.9993 149.127 94.3426C149.446 94.6859 149.822 94.9433 150.255 95.115C150.696 95.2785 151.187 95.3602 151.726 95.3602C152.241 95.3602 152.687 95.303 153.063 95.1886C153.439 95.066 153.766 94.9352 154.043 94.7962C154.321 94.6491 154.558 94.5183 154.755 94.4039C154.951 94.2813 155.131 94.22 155.294 94.22C155.507 94.22 155.67 94.3017 155.784 94.4652L156.532 95.4338C156.222 95.8016 155.87 96.1122 155.478 96.3656C155.086 96.6189 154.669 96.8274 154.227 96.9908C153.786 97.1461 153.332 97.2565 152.866 97.3219C152.401 97.3954 151.947 97.4322 151.506 97.4322C150.639 97.4322 149.834 97.2892 149.09 97.0031C148.355 96.7088 147.713 96.2797 147.165 95.7158C146.626 95.1518 146.201 94.4529 145.89 93.6192C145.588 92.7855 145.437 91.8251 145.437 90.738C145.437 89.8716 145.572 89.0624 145.841 88.3105C146.119 87.5585 146.512 86.9046 147.018 86.3488C147.533 85.793 148.154 85.3557 148.882 85.0369C149.617 84.71 150.447 84.5465 151.371 84.5465C152.139 84.5465 152.85 84.6732 153.504 84.9266C154.158 85.1718 154.722 85.5355 155.196 86.0178C155.67 86.5 156.038 87.0926 156.299 87.7955C156.569 88.4903 156.704 89.2831 156.704 90.1741C156.704 90.5827 156.659 90.8565 156.569 90.9955C156.479 91.1344 156.316 91.2039 156.079 91.2039H148.048ZM166.629 87.0109C166.563 87.1253 166.49 87.207 166.408 87.2561C166.326 87.3051 166.224 87.3296 166.102 87.3296C165.963 87.3296 165.811 87.2888 165.648 87.207C165.484 87.1171 165.292 87.019 165.072 86.9128C164.851 86.8065 164.589 86.7125 164.287 86.6308C163.993 86.5409 163.645 86.4959 163.245 86.4959C162.918 86.4959 162.62 86.5368 162.35 86.6185C162.088 86.6921 161.864 86.8024 161.676 86.9496C161.496 87.0885 161.357 87.2561 161.259 87.4522C161.161 87.6402 161.112 87.8446 161.112 88.0653C161.112 88.3595 161.202 88.6047 161.381 88.8009C161.561 88.9971 161.798 89.1687 162.092 89.3158C162.387 89.4548 162.722 89.5815 163.098 89.6959C163.474 89.8103 163.858 89.9329 164.25 90.0637C164.643 90.1945 165.027 90.3457 165.403 90.5173C165.779 90.689 166.114 90.9015 166.408 91.1549C166.702 91.4001 166.939 91.7025 167.119 92.0622C167.299 92.4136 167.389 92.8427 167.389 93.3495C167.389 93.938 167.283 94.4815 167.07 94.9801C166.858 95.4787 166.547 95.9119 166.138 96.2797C165.73 96.6475 165.219 96.9336 164.606 97.138C164.001 97.3423 163.306 97.4445 162.522 97.4445C162.088 97.4445 161.667 97.4036 161.259 97.3219C160.858 97.2483 160.474 97.1461 160.106 97.0154C159.747 96.8764 159.407 96.7129 159.089 96.5249C158.778 96.3369 158.5 96.1326 158.255 95.9119L158.868 94.9066C158.942 94.784 159.031 94.69 159.138 94.6246C159.252 94.551 159.391 94.5142 159.555 94.5142C159.726 94.5142 159.894 94.5715 160.057 94.6859C160.229 94.7921 160.425 94.9107 160.646 95.0414C160.875 95.1722 161.148 95.2948 161.467 95.4092C161.786 95.5155 162.182 95.5686 162.656 95.5686C163.049 95.5686 163.388 95.5237 163.674 95.4338C163.96 95.3357 164.197 95.2049 164.385 95.0414C164.573 94.878 164.712 94.6941 164.802 94.4897C164.892 94.2772 164.937 94.0524 164.937 93.8154C164.937 93.4966 164.847 93.2351 164.667 93.0307C164.487 92.8264 164.246 92.6507 163.944 92.5035C163.65 92.3564 163.31 92.2256 162.926 92.1112C162.55 91.9968 162.166 91.8742 161.774 91.7434C161.381 91.6126 160.993 91.4614 160.609 91.2897C160.233 91.1181 159.894 90.9015 159.591 90.6399C159.297 90.3702 159.06 90.0474 158.88 89.6714C158.7 89.2872 158.61 88.8213 158.61 88.2737C158.61 87.7751 158.709 87.301 158.905 86.8515C159.109 86.4019 159.403 86.0055 159.787 85.6622C160.18 85.3189 160.658 85.0492 161.222 84.853C161.794 84.6487 162.452 84.5465 163.196 84.5465C164.038 84.5465 164.802 84.6814 165.489 84.9511C166.175 85.2208 166.751 85.5887 167.217 86.0546L166.629 87.0109ZM173.875 97.4445C172.837 97.4445 172.036 97.1543 171.472 96.574C170.916 95.9855 170.639 95.16 170.639 94.0974V86.8147H169.265C169.118 86.8147 168.992 86.7697 168.885 86.6798C168.779 86.5818 168.726 86.4387 168.726 86.2507V85.1841L170.749 84.8898L171.325 81.273C171.366 81.134 171.435 81.0237 171.534 80.942C171.632 80.8521 171.762 80.8071 171.926 80.8071H173.275V84.9143H176.744V86.8147H173.275V93.9135C173.275 94.363 173.385 94.7063 173.606 94.9433C173.826 95.1804 174.12 95.2989 174.488 95.2989C174.693 95.2989 174.868 95.2744 175.015 95.2253C175.163 95.1681 175.289 95.1109 175.396 95.0537C175.502 94.9883 175.592 94.9311 175.665 94.882C175.747 94.8248 175.825 94.7962 175.898 94.7962C176.045 94.7962 176.164 94.878 176.254 95.0414L177.038 96.3288C176.63 96.6884 176.148 96.9663 175.592 97.1625C175.036 97.3505 174.464 97.4445 173.875 97.4445ZM200.916 88.4208C200.916 89.7286 200.703 90.926 200.278 92.0131C199.853 93.092 199.252 94.0197 198.476 94.7962C197.708 95.5727 196.78 96.1776 195.693 96.6108C194.614 97.0358 193.412 97.2483 192.088 97.2483H185.419V79.5933H192.088C193.412 79.5933 194.614 79.8099 195.693 80.2431C196.78 80.6681 197.708 81.2689 198.476 82.0454C199.252 82.8219 199.853 83.7537 200.278 84.8408C200.703 85.9197 200.916 87.113 200.916 88.4208ZM197.986 88.4208C197.986 87.4073 197.847 86.4959 197.569 85.6867C197.299 84.8776 196.907 84.1951 196.392 83.6393C195.885 83.0834 195.268 82.6584 194.54 82.3642C193.813 82.0617 192.996 81.9105 192.088 81.9105H188.3V94.9311H192.088C192.996 94.9311 193.813 94.784 194.54 94.4897C195.268 94.1955 195.885 93.7704 196.392 93.2146C196.907 92.6507 197.299 91.9682 197.569 91.1671C197.847 90.358 197.986 89.4425 197.986 88.4208ZM213.935 84.7427V97.2483H212.341C211.989 97.2483 211.765 97.0807 211.666 96.7456L211.47 95.5809C211.209 95.8588 210.931 96.1122 210.637 96.341C210.35 96.5699 210.044 96.7661 209.717 96.9295C209.39 97.093 209.039 97.2197 208.663 97.3096C208.295 97.3995 207.898 97.4445 207.473 97.4445C206.787 97.4445 206.182 97.33 205.659 97.1012C205.136 96.8723 204.694 96.5495 204.335 96.1326C203.983 95.7158 203.718 95.2172 203.538 94.6368C203.358 94.0483 203.268 93.4026 203.268 92.6997V84.7427H205.904V92.6997C205.904 93.5416 206.096 94.1955 206.48 94.6614C206.873 95.1273 207.465 95.3602 208.258 95.3602C208.838 95.3602 209.378 95.2294 209.876 94.9679C210.383 94.6981 210.857 94.3303 211.299 93.8644V84.7427H213.935ZM219.625 87.0599C220.017 86.2671 220.491 85.6459 221.047 85.1963C221.603 84.7386 222.269 84.5097 223.045 84.5097C223.315 84.5097 223.568 84.5424 223.805 84.6078C224.042 84.665 224.255 84.755 224.443 84.8776L224.259 86.8637C224.226 87.0027 224.173 87.1008 224.1 87.158C224.034 87.207 223.944 87.2316 223.83 87.2316C223.707 87.2316 223.532 87.2111 223.303 87.1703C223.074 87.1212 222.833 87.0967 222.579 87.0967C222.212 87.0967 221.885 87.1498 221.599 87.2561C221.321 87.3623 221.067 87.5176 220.838 87.722C220.618 87.9263 220.422 88.1756 220.25 88.4699C220.078 88.7641 219.919 89.0992 219.772 89.4752V97.2483H217.136V84.7427H218.668C218.946 84.7427 219.138 84.7958 219.245 84.9021C219.351 85.0002 219.424 85.1759 219.465 85.4293L219.625 87.0599ZM232.678 91.7802C231.738 91.8129 230.945 91.8905 230.299 92.0131C229.653 92.1275 229.13 92.2788 228.73 92.4667C228.329 92.6466 228.039 92.8632 227.859 93.1165C227.688 93.3699 227.602 93.6478 227.602 93.9503C227.602 94.2445 227.647 94.4979 227.737 94.7104C227.835 94.9147 227.966 95.0864 228.129 95.2253C228.301 95.3561 228.497 95.4542 228.718 95.5196C228.946 95.5768 229.196 95.6054 229.465 95.6054C230.152 95.6054 230.741 95.4787 231.231 95.2253C231.73 94.9638 232.212 94.5878 232.678 94.0974V91.7802ZM225.689 86.4837C227.103 85.1677 228.787 84.5097 230.741 84.5097C231.46 84.5097 232.097 84.6283 232.653 84.8653C233.217 85.0942 233.687 85.4211 234.063 85.8461C234.447 86.2712 234.737 86.7779 234.934 87.3664C235.138 87.9467 235.24 88.5925 235.24 89.3036V97.2483H234.063C233.81 97.2483 233.618 97.2115 233.487 97.138C233.356 97.0562 233.246 96.8968 233.156 96.6598L232.898 95.6422C232.58 95.9283 232.265 96.1857 231.954 96.4146C231.644 96.6353 231.321 96.8233 230.986 96.9786C230.659 97.1339 230.303 97.2483 229.919 97.3219C229.543 97.4036 229.126 97.4445 228.669 97.4445C228.162 97.4445 227.688 97.375 227.246 97.236C226.813 97.0971 226.437 96.8887 226.118 96.6108C225.8 96.3247 225.546 95.9732 225.358 95.5564C225.178 95.1395 225.089 94.6491 225.089 94.0851C225.089 93.6029 225.215 93.1329 225.469 92.6752C225.73 92.2175 226.155 91.8088 226.744 91.4491C227.34 91.0813 228.121 90.7789 229.085 90.5419C230.058 90.3048 231.256 90.17 232.678 90.1373V89.3036C232.678 88.4045 232.486 87.7342 232.101 87.2929C231.717 86.8515 231.153 86.6308 230.41 86.6308C229.903 86.6308 229.478 86.6962 229.134 86.827C228.791 86.9496 228.493 87.0844 228.239 87.2316C227.986 87.3787 227.761 87.5176 227.565 87.6484C227.369 87.771 227.161 87.8323 226.94 87.8323C226.76 87.8323 226.605 87.7874 226.474 87.6974C226.351 87.5994 226.249 87.4808 226.167 87.3419L225.689 86.4837ZM250.298 97.2483H247.662V86.8147H241.569V93.9135C241.569 94.363 241.679 94.7063 241.9 94.9433C242.121 95.1804 242.415 95.2989 242.783 95.2989C242.987 95.2989 243.163 95.2744 243.31 95.2253C243.457 95.1681 243.584 95.1109 243.69 95.0537C243.796 94.9883 243.886 94.9311 243.96 94.882C244.041 94.8248 244.119 94.7962 244.193 94.7962C244.34 94.7962 244.458 94.878 244.548 95.0414L245.333 96.3288C244.924 96.6884 244.442 96.9663 243.886 97.1625C243.33 97.3505 242.758 97.4445 242.17 97.4445C241.132 97.4445 240.331 97.1543 239.767 96.574C239.211 95.9855 238.933 95.16 238.933 94.0974V86.8147H237.56C237.413 86.8147 237.286 86.7697 237.18 86.6798C237.073 86.5818 237.02 86.4387 237.02 86.2507V85.1841L239.043 84.8898L239.619 81.273C239.66 81.134 239.73 81.0237 239.828 80.942C239.926 80.8521 240.057 80.8071 240.22 80.8071H241.569V84.9143H250.298V97.2483ZM250.838 80.9052C250.838 81.1422 250.789 81.367 250.691 81.5795C250.601 81.7838 250.474 81.9678 250.31 82.1312C250.147 82.2865 249.955 82.4132 249.734 82.5113C249.522 82.6012 249.297 82.6462 249.06 82.6462C248.823 82.6462 248.598 82.6012 248.386 82.5113C248.181 82.4132 247.997 82.2865 247.834 82.1312C247.679 81.9678 247.552 81.7838 247.454 81.5795C247.364 81.367 247.319 81.1422 247.319 80.9052C247.319 80.66 247.364 80.4311 247.454 80.2186C247.552 79.9979 247.679 79.8099 247.834 79.6546C247.997 79.4911 248.181 79.3645 248.386 79.2745C248.598 79.1765 248.823 79.1274 249.06 79.1274C249.297 79.1274 249.522 79.1765 249.734 79.2745C249.955 79.3645 250.147 79.4911 250.31 79.6546C250.474 79.8099 250.601 79.9979 250.691 80.2186C250.789 80.4311 250.838 80.66 250.838 80.9052ZM259.036 84.5465C259.96 84.5465 260.794 84.6977 261.538 85.0002C262.29 85.3026 262.927 85.7317 263.45 86.2875C263.981 86.8433 264.39 87.5176 264.676 88.3105C264.962 89.1033 265.105 89.9942 265.105 90.9832C265.105 91.9722 264.962 92.8632 264.676 93.656C264.39 94.4488 263.981 95.1273 263.45 95.6912C262.927 96.247 262.29 96.6762 261.538 96.9786C260.794 97.281 259.96 97.4322 259.036 97.4322C258.105 97.4322 257.263 97.281 256.511 96.9786C255.767 96.6762 255.129 96.247 254.598 95.6912C254.067 95.1273 253.658 94.4488 253.372 93.656C253.086 92.8632 252.943 91.9722 252.943 90.9832C252.943 89.9942 253.086 89.1033 253.372 88.3105C253.658 87.5176 254.067 86.8433 254.598 86.2875C255.129 85.7317 255.767 85.3026 256.511 85.0002C257.263 84.6977 258.105 84.5465 259.036 84.5465ZM259.036 95.3725C260.164 95.3725 261.002 94.9965 261.55 94.2445C262.106 93.4844 262.384 92.4014 262.384 90.9955C262.384 89.5896 262.106 88.5066 261.55 87.7465C261.002 86.9782 260.164 86.594 259.036 86.594C257.892 86.594 257.042 86.9782 256.486 87.7465C255.93 88.5066 255.653 89.5896 255.653 90.9955C255.653 92.4014 255.93 93.4844 256.486 94.2445C257.042 94.9965 257.892 95.3725 259.036 95.3725ZM270.102 86.3978C270.372 86.1199 270.65 85.8706 270.936 85.65C271.23 85.4211 271.541 85.2249 271.868 85.0615C272.195 84.898 272.542 84.7713 272.91 84.6814C273.278 84.5915 273.678 84.5465 274.112 84.5465C274.798 84.5465 275.399 84.661 275.914 84.8898C276.437 85.1187 276.874 85.4415 277.226 85.8584C277.585 86.2752 277.855 86.7779 278.035 87.3664C278.215 87.9467 278.305 88.5884 278.305 89.2913V97.2483H275.681V89.2913C275.681 88.4494 275.485 87.7955 275.092 87.3296C274.708 86.8637 274.12 86.6308 273.327 86.6308C272.738 86.6308 272.191 86.7657 271.684 87.0354C271.185 87.3051 270.715 87.6729 270.274 88.1388V97.2483H267.638V84.7427H269.232C269.592 84.7427 269.82 84.9102 269.919 85.2454L270.102 86.3978ZM296.508 90.6277L294.081 84.1787C293.884 83.6801 293.684 83.0467 293.48 82.2783C293.39 82.6625 293.292 83.0181 293.186 83.345C293.079 83.6638 292.981 83.9458 292.891 84.191L290.464 90.6277H296.508ZM301.939 97.2483H299.72C299.467 97.2483 299.263 97.187 299.107 97.0644C298.952 96.9336 298.833 96.7742 298.752 96.5862L297.28 92.6874H289.679L288.208 96.5862C288.142 96.7497 288.028 96.9009 287.864 97.0399C287.701 97.1788 287.497 97.2483 287.251 97.2483H285.032L292.033 79.5933H294.939L301.939 97.2483ZM305.926 86.3978C306.196 86.1199 306.473 85.8706 306.76 85.65C307.054 85.4211 307.364 85.2249 307.691 85.0615C308.018 84.898 308.366 84.7713 308.733 84.6814C309.101 84.5915 309.502 84.5465 309.935 84.5465C310.622 84.5465 311.222 84.661 311.737 84.8898C312.26 85.1187 312.698 85.4415 313.049 85.8584C313.409 86.2752 313.678 86.7779 313.858 87.3664C314.038 87.9467 314.128 88.5884 314.128 89.2913V97.2483H311.504V89.2913C311.504 88.4494 311.308 87.7955 310.916 87.3296C310.532 86.8637 309.943 86.6308 309.15 86.6308C308.562 86.6308 308.014 86.7657 307.507 87.0354C307.009 87.3051 306.539 87.6729 306.097 88.1388V97.2483H303.461V84.7427H305.055C305.415 84.7427 305.644 84.9102 305.742 85.2454L305.926 86.3978ZM323.888 91.7802C322.948 91.8129 322.156 91.8905 321.51 92.0131C320.864 92.1275 320.341 92.2788 319.941 92.4667C319.54 92.6466 319.25 92.8632 319.07 93.1165C318.898 93.3699 318.813 93.6478 318.813 93.9503C318.813 94.2445 318.858 94.4979 318.947 94.7104C319.046 94.9147 319.176 95.0864 319.34 95.2253C319.511 95.3561 319.708 95.4542 319.928 95.5196C320.157 95.5768 320.406 95.6054 320.676 95.6054C321.363 95.6054 321.951 95.4787 322.442 95.2253C322.94 94.9638 323.423 94.5878 323.888 94.0974V91.7802ZM316.9 86.4837C318.314 85.1677 319.998 84.5097 321.951 84.5097C322.671 84.5097 323.308 84.6283 323.864 84.8653C324.428 85.0942 324.898 85.4211 325.274 85.8461C325.658 86.2712 325.948 86.7779 326.144 87.3664C326.349 87.9467 326.451 88.5925 326.451 89.3036V97.2483H325.274C325.02 97.2483 324.828 97.2115 324.698 97.138C324.567 97.0562 324.457 96.8968 324.367 96.6598L324.109 95.6422C323.79 95.9283 323.476 96.1857 323.165 96.4146C322.854 96.6353 322.532 96.8233 322.197 96.9786C321.87 97.1339 321.514 97.2483 321.13 97.3219C320.754 97.4036 320.337 97.4445 319.879 97.4445C319.373 97.4445 318.898 97.375 318.457 97.236C318.024 97.0971 317.648 96.8887 317.329 96.6108C317.01 96.3247 316.757 95.9732 316.569 95.5564C316.389 95.1395 316.299 94.6491 316.299 94.0851C316.299 93.6029 316.426 93.1329 316.679 92.6752C316.941 92.2175 317.366 91.8088 317.954 91.4491C318.551 91.0813 319.332 90.7789 320.296 90.5419C321.269 90.3048 322.466 90.17 323.888 90.1373V89.3036C323.888 88.4045 323.696 87.7342 323.312 87.2929C322.928 86.8515 322.364 86.6308 321.62 86.6308C321.113 86.6308 320.688 86.6962 320.345 86.827C320.002 86.9496 319.704 87.0844 319.45 87.2316C319.197 87.3787 318.972 87.5176 318.776 87.6484C318.58 87.771 318.371 87.8323 318.151 87.8323C317.971 87.8323 317.815 87.7874 317.685 87.6974C317.562 87.5994 317.46 87.4808 317.378 87.3419L316.9 86.4837ZM332.224 79.1029V97.2483H329.588V79.1029H332.224ZM346.573 84.7427L339.683 100.804C339.593 100.992 339.482 101.139 339.352 101.245C339.229 101.351 339.037 101.405 338.775 101.405H336.826L339.131 96.4023L334.031 84.7427H336.323C336.544 84.7427 336.712 84.7958 336.826 84.9021C336.949 85.0002 337.039 85.1187 337.096 85.2576L340.075 92.3564C340.149 92.5607 340.214 92.7651 340.271 92.9694C340.337 93.1656 340.398 93.3699 340.455 93.5824C340.521 93.3699 340.586 93.1615 340.651 92.9572C340.717 92.7528 340.79 92.5485 340.872 92.3441L343.729 85.2576C343.786 85.1105 343.88 84.9879 344.011 84.8898C344.15 84.7917 344.301 84.7427 344.464 84.7427H346.573ZM360.426 97.2483H357.79V86.8147H351.697V93.9135C351.697 94.363 351.807 94.7063 352.028 94.9433C352.249 95.1804 352.543 95.2989 352.911 95.2989C353.115 95.2989 353.291 95.2744 353.438 95.2253C353.585 95.1681 353.712 95.1109 353.818 95.0537C353.924 94.9883 354.014 94.9311 354.088 94.882C354.169 94.8248 354.247 94.7962 354.321 94.7962C354.468 94.7962 354.586 94.878 354.676 95.0414L355.461 96.3288C355.052 96.6884 354.57 96.9663 354.014 97.1625C353.458 97.3505 352.886 97.4445 352.298 97.4445C351.26 97.4445 350.459 97.1543 349.895 96.574C349.339 95.9855 349.061 95.16 349.061 94.0974V86.8147H347.688C347.541 86.8147 347.414 86.7697 347.308 86.6798C347.201 86.5818 347.148 86.4387 347.148 86.2507V85.1841L349.171 84.8898L349.748 81.273C349.788 81.134 349.858 81.0237 349.956 80.942C350.054 80.8521 350.185 80.8071 350.348 80.8071H351.697V84.9143H360.426V97.2483ZM360.966 80.9052C360.966 81.1422 360.917 81.367 360.819 81.5795C360.729 81.7838 360.602 81.9678 360.439 82.1312C360.275 82.2865 360.083 82.4132 359.862 82.5113C359.65 82.6012 359.425 82.6462 359.188 82.6462C358.951 82.6462 358.726 82.6012 358.514 82.5113C358.309 82.4132 358.125 82.2865 357.962 82.1312C357.807 81.9678 357.68 81.7838 357.582 81.5795C357.492 81.367 357.447 81.1422 357.447 80.9052C357.447 80.66 357.492 80.4311 357.582 80.2186C357.68 79.9979 357.807 79.8099 357.962 79.6546C358.125 79.4911 358.309 79.3645 358.514 79.2745C358.726 79.1765 358.951 79.1274 359.188 79.1274C359.425 79.1274 359.65 79.1765 359.862 79.2745C360.083 79.3645 360.275 79.4911 360.439 79.6546C360.602 79.8099 360.729 79.9979 360.819 80.2186C360.917 80.4311 360.966 80.66 360.966 80.9052ZM372.598 87.1948C372.516 87.301 372.438 87.3828 372.365 87.44C372.291 87.4972 372.185 87.5258 372.046 87.5258C371.907 87.5258 371.76 87.4768 371.604 87.3787C371.457 87.2806 371.277 87.1743 371.065 87.0599C370.861 86.9373 370.611 86.827 370.317 86.7289C370.023 86.6308 369.655 86.5818 369.214 86.5818C368.641 86.5818 368.139 86.6839 367.706 86.8883C367.281 87.0926 366.921 87.3869 366.627 87.771C366.341 88.147 366.124 88.6088 365.977 89.1564C365.838 89.6959 365.768 90.3048 365.768 90.9832C365.768 91.6862 365.846 92.3114 366.001 92.8591C366.157 93.4067 366.377 93.8685 366.663 94.2445C366.958 94.6205 367.309 94.9066 367.718 95.1027C368.135 95.2989 368.601 95.397 369.116 95.397C369.622 95.397 370.035 95.3357 370.354 95.2131C370.673 95.0905 370.938 94.9556 371.151 94.8085C371.363 94.6614 371.543 94.5265 371.69 94.4039C371.846 94.2813 372.009 94.22 372.181 94.22C372.393 94.22 372.557 94.3017 372.671 94.4652L373.419 95.4338C373.117 95.8016 372.781 96.1122 372.414 96.3656C372.046 96.6189 371.658 96.8274 371.249 96.9908C370.84 97.1461 370.415 97.2565 369.974 97.3219C369.532 97.3954 369.087 97.4322 368.637 97.4322C367.861 97.4322 367.133 97.2892 366.455 97.0031C365.785 96.7088 365.196 96.2879 364.69 95.7403C364.191 95.1845 363.795 94.5101 363.5 93.7173C363.214 92.9163 363.071 92.0049 363.071 90.9832C363.071 90.0596 363.202 89.2055 363.464 88.4208C363.725 87.628 364.105 86.9455 364.604 86.3733C365.11 85.8012 365.736 85.3557 366.48 85.0369C367.223 84.71 368.082 84.5465 369.054 84.5465C369.962 84.5465 370.758 84.6936 371.445 84.9879C372.14 85.2821 372.757 85.699 373.296 86.2385L372.598 87.1948ZM383.006 87.0109C382.94 87.1253 382.867 87.207 382.785 87.2561C382.703 87.3051 382.601 87.3296 382.479 87.3296C382.34 87.3296 382.188 87.2888 382.025 87.207C381.862 87.1171 381.669 87.019 381.449 86.9128C381.228 86.8065 380.967 86.7125 380.664 86.6308C380.37 86.5409 380.022 86.4959 379.622 86.4959C379.295 86.4959 378.997 86.5368 378.727 86.6185C378.465 86.6921 378.241 86.8024 378.053 86.9496C377.873 87.0885 377.734 87.2561 377.636 87.4522C377.538 87.6402 377.489 87.8446 377.489 88.0653C377.489 88.3595 377.579 88.6047 377.758 88.8009C377.938 88.9971 378.175 89.1687 378.469 89.3158C378.764 89.4548 379.099 89.5815 379.475 89.6959C379.851 89.8103 380.235 89.9329 380.627 90.0637C381.02 90.1945 381.404 90.3457 381.78 90.5173C382.156 90.689 382.491 90.9015 382.785 91.1549C383.079 91.4001 383.316 91.7025 383.496 92.0622C383.676 92.4136 383.766 92.8427 383.766 93.3495C383.766 93.938 383.66 94.4815 383.447 94.9801C383.235 95.4787 382.924 95.9119 382.515 96.2797C382.107 96.6475 381.596 96.9336 380.983 97.138C380.378 97.3423 379.683 97.4445 378.899 97.4445C378.465 97.4445 378.044 97.4036 377.636 97.3219C377.235 97.2483 376.851 97.1461 376.483 97.0154C376.124 96.8764 375.784 96.7129 375.466 96.5249C375.155 96.3369 374.877 96.1326 374.632 95.9119L375.245 94.9066C375.319 94.784 375.408 94.69 375.515 94.6246C375.629 94.551 375.768 94.5142 375.932 94.5142C376.103 94.5142 376.271 94.5715 376.434 94.6859C376.606 94.7921 376.802 94.9107 377.023 95.0414C377.252 95.1722 377.525 95.2948 377.844 95.4092C378.163 95.5155 378.559 95.5686 379.033 95.5686C379.426 95.5686 379.765 95.5237 380.051 95.4338C380.337 95.3357 380.574 95.2049 380.762 95.0414C380.95 94.878 381.089 94.6941 381.179 94.4897C381.269 94.2772 381.314 94.0524 381.314 93.8154C381.314 93.4966 381.224 93.2351 381.044 93.0307C380.864 92.8264 380.623 92.6507 380.321 92.5035C380.027 92.3564 379.687 92.2256 379.303 92.1112C378.927 91.9968 378.543 91.8742 378.151 91.7434C377.758 91.6126 377.37 91.4614 376.986 91.2897C376.61 91.1181 376.271 90.9015 375.968 90.6399C375.674 90.3702 375.437 90.0474 375.257 89.6714C375.077 89.2872 374.988 88.8213 374.988 88.2737C374.988 87.7751 375.086 87.301 375.282 86.8515C375.486 86.4019 375.78 86.0055 376.165 85.6622C376.557 85.3189 377.035 85.0492 377.599 84.853C378.171 84.6487 378.829 84.5465 379.573 84.5465C380.415 84.5465 381.179 84.6814 381.866 84.9511C382.552 85.2208 383.128 85.5887 383.594 86.0546L383.006 87.0109Z" fill="#202020"/>
<path opacity="0.2" d="M409.412 100.009C416.156 100.009 421.673 94.4915 421.673 87.7483C421.673 81.0051 416.156 75.4879 409.412 75.4879C402.669 75.4879 397.152 81.0051 397.152 87.7483C397.152 94.4915 402.669 100.009 409.412 100.009Z" stroke="#202020" stroke-width="1.83906" stroke-linecap="round" stroke-linejoin="round"/>
<path opacity="0.2" d="M409.412 82.8441V88.9744" stroke="#202020" stroke-width="1.83906" stroke-linecap="round" stroke-linejoin="round"/>
<path opacity="0.2" d="M409.406 92.6525H409.417" stroke="#202020" stroke-width="2.45208" stroke-linecap="round" stroke-linejoin="round"/>
<path d="M635.176 106.058C635.748 106.058 636.198 106.23 636.525 106.573C636.852 106.9 637.015 107.325 637.015 107.848V111.036H613.132V109.246C613.132 108.886 613.205 108.51 613.352 108.118C613.5 107.726 613.737 107.366 614.064 107.039L625.049 96.0291C625.981 95.0973 626.806 94.2064 627.525 93.3563C628.261 92.5062 628.882 91.6562 629.389 90.8061C629.912 89.9561 630.304 89.0979 630.566 88.2315C630.844 87.3487 630.983 86.4251 630.983 85.4606C630.983 84.5288 630.836 83.7115 630.542 83.0085C630.264 82.2892 629.871 81.7007 629.365 81.243C628.874 80.769 628.277 80.4175 627.575 80.1886C626.888 79.9434 626.128 79.8208 625.294 79.8208C624.493 79.8208 623.749 79.9352 623.063 80.1641C622.392 80.393 621.788 80.7117 621.248 81.1204C620.725 81.5291 620.284 82.0195 619.924 82.5917C619.581 83.1475 619.327 83.7605 619.164 84.4307C618.919 85.101 618.6 85.5505 618.208 85.7794C617.832 86.0082 617.276 86.0573 616.54 85.9265L613.769 85.4361C614.015 83.7687 614.472 82.3056 615.142 81.0469C615.829 79.7881 616.687 78.7419 617.717 77.9082C618.747 77.0581 619.924 76.4206 621.248 75.9956C622.589 75.5542 624.035 75.3335 625.588 75.3335C627.158 75.3335 628.596 75.5705 629.904 76.0446C631.228 76.5023 632.364 77.1644 633.312 78.0308C634.277 78.8808 635.029 79.9189 635.568 81.1449C636.108 82.371 636.377 83.7523 636.377 85.289C636.377 86.5967 636.181 87.8064 635.789 88.918C635.413 90.0296 634.898 91.0922 634.244 92.1057C633.59 93.1193 632.822 94.1083 631.939 95.0728C631.073 96.0209 630.157 96.9854 629.193 97.9662L620.66 106.696C621.363 106.499 622.066 106.344 622.768 106.23C623.488 106.115 624.166 106.058 624.804 106.058H635.176ZM641.899 107.995C641.899 107.521 641.98 107.08 642.144 106.671C642.324 106.246 642.561 105.878 642.855 105.568C643.165 105.257 643.525 105.012 643.934 104.832C644.359 104.652 644.808 104.562 645.282 104.562C645.756 104.562 646.198 104.652 646.606 104.832C647.032 105.012 647.399 105.257 647.71 105.568C648.021 105.878 648.266 106.246 648.446 106.671C648.625 107.08 648.715 107.521 648.715 107.995C648.715 108.486 648.625 108.935 648.446 109.344C648.266 109.753 648.021 110.112 647.71 110.423C647.399 110.733 647.032 110.97 646.606 111.134C646.198 111.314 645.756 111.404 645.282 111.404C644.808 111.404 644.359 111.314 643.934 111.134C643.525 110.97 643.165 110.733 642.855 110.423C642.561 110.112 642.324 109.753 642.144 109.344C641.98 108.935 641.899 108.486 641.899 107.995ZM660.526 88.7709C661.376 88.5911 662.185 88.4603 662.953 88.3786C663.738 88.2968 664.49 88.256 665.209 88.256C667.057 88.256 668.683 88.5339 670.089 89.0897C671.511 89.6291 672.696 90.3811 673.645 91.3456C674.609 92.3101 675.328 93.4462 675.802 94.754C676.293 96.0454 676.538 97.4513 676.538 98.9716C676.538 100.852 676.211 102.56 675.557 104.096C674.903 105.633 673.996 106.949 672.835 108.044C671.675 109.123 670.302 109.957 668.716 110.545C667.147 111.134 665.446 111.428 663.616 111.428C662.537 111.428 661.507 111.322 660.526 111.109C659.561 110.897 658.654 110.611 657.804 110.251C656.954 109.875 656.169 109.45 655.45 108.976C654.731 108.486 654.085 107.979 653.513 107.456L655.131 105.2C655.475 104.709 655.932 104.464 656.504 104.464C656.864 104.464 657.256 104.595 657.681 104.857C658.107 105.118 658.597 105.404 659.153 105.715C659.725 106.009 660.395 106.287 661.163 106.549C661.932 106.81 662.847 106.941 663.91 106.941C665.07 106.941 666.108 106.753 667.024 106.377C667.939 106.001 668.708 105.478 669.329 104.808C669.966 104.121 670.449 103.304 670.776 102.355C671.103 101.407 671.266 100.369 671.266 99.2413C671.266 98.2114 671.111 97.2878 670.8 96.4704C670.506 95.6531 670.056 94.9583 669.451 94.3862C668.863 93.814 668.119 93.3808 667.22 93.0866C666.321 92.776 665.283 92.6207 664.106 92.6207C663.24 92.6207 662.349 92.6942 661.433 92.8414C660.534 92.9885 659.619 93.2174 658.687 93.5279L655.401 92.5962L658.295 75.7258H675.386V78.0063C675.386 78.7582 675.148 79.3713 674.674 79.8453C674.2 80.3194 673.407 80.5564 672.296 80.5564H661.948L660.526 88.7709ZM689.464 90.8307H691.107C691.728 90.8307 692.235 90.7489 692.627 90.5855C693.02 90.4056 693.371 90.1277 693.682 89.7517L704.373 77.0009C704.749 76.5269 705.133 76.1999 705.525 76.0201C705.934 75.8239 706.441 75.7258 707.046 75.7258H711.95L699.322 90.6345C698.978 91.0595 698.643 91.4192 698.316 91.7134C698.006 91.9913 697.662 92.2202 697.286 92.4C697.777 92.5798 698.218 92.8332 698.611 93.1601C699.003 93.4707 699.387 93.8876 699.763 94.4107L712.857 111.036H707.855C707.495 111.036 707.185 111.011 706.923 110.962C706.678 110.913 706.457 110.84 706.261 110.742C706.081 110.643 705.918 110.521 705.771 110.374C705.64 110.227 705.517 110.063 705.403 109.883L694.368 96.3969C694.205 96.1844 694.042 96.0046 693.878 95.8574C693.715 95.7103 693.518 95.5877 693.29 95.4896C693.077 95.3915 692.832 95.3261 692.554 95.2934C692.276 95.2444 691.949 95.2199 691.573 95.2199H689.464V111.036H683.726V75.7258H689.464V90.8307Z" fill="white"/>
<path opacity="0.7" d="M72.7578 388.053C72.7578 388.975 72.6573 389.774 72.4562 390.451C72.26 391.123 71.9903 391.68 71.647 392.121C71.3037 392.562 70.8967 392.891 70.4259 393.107C69.96 393.322 69.4598 393.43 68.9252 393.43C68.3857 393.43 67.8831 393.322 67.4172 393.107C66.9562 392.891 66.554 392.562 66.2108 392.121C65.8675 391.68 65.5977 391.123 65.4016 390.451C65.2054 389.774 65.1073 388.975 65.1073 388.053C65.1073 387.131 65.2054 386.332 65.4016 385.655C65.5977 384.978 65.8675 384.419 66.2108 383.978C66.554 383.531 66.9562 383.2 67.4172 382.984C67.8831 382.769 68.3857 382.661 68.9252 382.661C69.4598 382.661 69.96 382.769 70.4259 382.984C70.8967 383.2 71.3037 383.531 71.647 383.978C71.9903 384.419 72.26 384.978 72.4562 385.655C72.6573 386.332 72.7578 387.131 72.7578 388.053ZM71.3969 388.053C71.3969 387.249 71.3282 386.574 71.1909 386.03C71.0585 385.481 70.8771 385.039 70.6466 384.706C70.421 384.372 70.1586 384.134 69.8594 383.992C69.5603 383.845 69.2489 383.772 68.9252 383.772C68.6015 383.772 68.2901 383.845 67.991 383.992C67.6918 384.134 67.4294 384.372 67.2038 384.706C66.9783 385.039 66.7968 385.481 66.6595 386.03C66.5271 386.574 66.4609 387.249 66.4609 388.053C66.4609 388.857 66.5271 389.531 66.6595 390.076C66.7968 390.62 66.9783 391.059 67.2038 391.393C67.4294 391.726 67.6918 391.966 67.991 392.114C68.2901 392.256 68.6015 392.327 68.9252 392.327C69.2489 392.327 69.5603 392.256 69.8594 392.114C70.1586 391.966 70.421 391.726 70.6466 391.393C70.8771 391.059 71.0585 390.62 71.1909 390.076C71.3282 389.531 71.3969 388.857 71.3969 388.053ZM78.0019 393.32V385.868H78.789C78.9754 385.868 79.0906 385.959 79.1348 386.14L79.2304 386.905C79.505 386.567 79.814 386.29 80.1573 386.074C80.5006 385.858 80.8978 385.75 81.349 385.75C81.8492 385.75 82.2538 385.89 82.5628 386.17C82.8766 386.449 83.1022 386.827 83.2395 387.303C83.3474 387.033 83.4847 386.8 83.6515 386.604C83.8231 386.408 84.0144 386.246 84.2253 386.118C84.4362 385.991 84.6593 385.897 84.8947 385.839C85.135 385.78 85.3778 385.75 85.623 385.75C86.0153 385.75 86.3635 385.814 86.6675 385.942C86.9765 386.064 87.2364 386.246 87.4473 386.486C87.6631 386.726 87.8274 387.023 87.9402 387.376C88.053 387.724 88.1094 388.124 88.1094 388.575V393.32H86.7926V388.575C86.7926 387.992 86.6651 387.55 86.4101 387.251C86.1551 386.947 85.7872 386.795 85.3066 386.795C85.0909 386.795 84.8849 386.834 84.6887 386.913C84.4975 386.986 84.3283 387.097 84.1811 387.244C84.034 387.391 83.9163 387.577 83.828 387.803C83.7447 388.023 83.703 388.281 83.703 388.575V393.32H82.3862V388.575C82.3862 387.977 82.2661 387.531 82.0258 387.236C81.7855 386.942 81.4348 386.795 80.9738 386.795C80.6501 386.795 80.351 386.883 80.0764 387.06C79.8017 387.231 79.5492 387.467 79.3187 387.766V393.32H78.0019ZM91.4824 385.868V393.32H90.173V385.868H91.4824ZM91.762 383.529C91.762 383.656 91.735 383.776 91.6811 383.889C91.632 383.997 91.5634 384.095 91.4751 384.183C91.3917 384.267 91.2912 384.333 91.1735 384.382C91.0607 384.431 90.9405 384.456 90.813 384.456C90.6855 384.456 90.5654 384.431 90.4526 384.382C90.3447 384.333 90.249 384.267 90.1657 384.183C90.0823 384.095 90.0161 383.997 89.9671 383.889C89.918 383.776 89.8935 383.656 89.8935 383.529C89.8935 383.401 89.918 383.281 89.9671 383.168C90.0161 383.051 90.0823 382.95 90.1657 382.867C90.249 382.778 90.3447 382.71 90.4526 382.661C90.5654 382.612 90.6855 382.587 90.813 382.587C90.9405 382.587 91.0607 382.612 91.1735 382.661C91.2912 382.71 91.3917 382.778 91.4751 382.867C91.5634 382.95 91.632 383.051 91.6811 383.168C91.735 383.281 91.762 383.401 91.762 383.529ZM94.8698 386.949C95.0316 386.768 95.2032 386.604 95.3847 386.457C95.5661 386.309 95.7574 386.184 95.9585 386.081C96.1645 385.974 96.3802 385.893 96.6058 385.839C96.8363 385.78 97.084 385.75 97.3488 385.75C97.7559 385.75 98.1139 385.819 98.4228 385.956C98.7367 386.089 98.9966 386.28 99.2026 386.53C99.4135 386.775 99.5728 387.072 99.6807 387.42C99.7886 387.768 99.8426 388.153 99.8426 388.575V393.32H98.5258V388.575C98.5258 388.011 98.3959 387.575 98.1359 387.266C97.8809 386.952 97.491 386.795 96.9663 386.795C96.5789 386.795 96.216 386.888 95.8776 387.074C95.5441 387.261 95.2351 387.513 94.9507 387.832V393.32H93.6339V385.868H94.421C94.6074 385.868 94.7226 385.959 94.7668 386.14L94.8698 386.949Z" fill="#202020"/>
<path opacity="0.7" d="M71.6594 335.679C71.8016 335.679 71.9144 335.721 71.9977 335.804C72.0811 335.887 72.1228 335.995 72.1228 336.128V336.922H65.0902V336.473C65.0902 336.38 65.1098 336.285 65.1491 336.186C65.1883 336.088 65.2496 335.998 65.333 335.914L68.7095 332.523C68.989 332.239 69.2441 331.966 69.4746 331.707C69.705 331.442 69.9012 331.177 70.0631 330.912C70.2249 330.647 70.3499 330.38 70.4382 330.11C70.5265 329.836 70.5706 329.544 70.5706 329.235C70.5706 328.926 70.5216 328.656 70.4235 328.426C70.3254 328.19 70.1906 327.997 70.0189 327.845C69.8522 327.692 69.6536 327.58 69.4231 327.506C69.1926 327.428 68.9449 327.388 68.6801 327.388C68.4103 327.388 68.1627 327.428 67.9371 327.506C67.7115 327.585 67.5104 327.695 67.3339 327.837C67.1622 327.974 67.0176 328.139 66.8999 328.33C66.7822 328.521 66.6988 328.732 66.6498 328.963C66.5909 329.134 66.51 329.25 66.407 329.308C66.3089 329.362 66.1691 329.377 65.9877 329.353L65.3036 329.235C65.3722 328.754 65.5046 328.33 65.7008 327.962C65.9019 327.589 66.152 327.278 66.4511 327.028C66.7552 326.778 67.1009 326.589 67.4884 326.462C67.8758 326.329 68.2951 326.263 68.7463 326.263C69.1926 326.263 69.6094 326.329 69.9968 326.462C70.3843 326.594 70.7202 326.788 71.0047 327.043C71.2891 327.293 71.5122 327.599 71.6741 327.962C71.8359 328.325 71.9168 328.737 71.9168 329.198C71.9168 329.59 71.858 329.956 71.7403 330.294C71.6226 330.628 71.4632 330.946 71.2621 331.25C71.061 331.555 70.8281 331.851 70.5633 332.141C70.3034 332.43 70.0263 332.722 69.732 333.016L66.9514 335.855C67.1475 335.802 67.3461 335.76 67.5472 335.73C67.7483 335.696 67.942 335.679 68.1284 335.679H71.6594ZM81.025 331.655C81.025 332.577 80.9245 333.376 80.7234 334.053C80.5272 334.725 80.2575 335.282 79.9142 335.723C79.5709 336.164 79.1639 336.493 78.6931 336.709C78.2272 336.925 77.727 337.032 77.1924 337.032C76.6529 337.032 76.1503 336.925 75.6844 336.709C75.2234 336.493 74.8212 336.164 74.4779 335.723C74.1347 335.282 73.8649 334.725 73.6688 334.053C73.4726 333.376 73.3745 332.577 73.3745 331.655C73.3745 330.733 73.4726 329.934 73.6688 329.257C73.8649 328.58 74.1347 328.021 74.4779 327.58C74.8212 327.133 75.2234 326.802 75.6844 326.587C76.1503 326.371 76.6529 326.263 77.1924 326.263C77.727 326.263 78.2272 326.371 78.6931 326.587C79.1639 326.802 79.5709 327.133 79.9142 327.58C80.2575 328.021 80.5272 328.58 80.7234 329.257C80.9245 329.934 81.025 330.733 81.025 331.655ZM79.6641 331.655C79.6641 330.851 79.5954 330.176 79.4581 329.632C79.3257 329.083 79.1443 328.641 78.9138 328.308C78.6882 327.974 78.4258 327.737 78.1266 327.594C77.8275 327.447 77.5161 327.374 77.1924 327.374C76.8687 327.374 76.5573 327.447 76.2582 327.594C75.959 327.737 75.6966 327.974 75.471 328.308C75.2454 328.641 75.064 329.083 74.9267 329.632C74.7943 330.176 74.7281 330.851 74.7281 331.655C74.7281 332.459 74.7943 333.134 74.9267 333.678C75.064 334.222 75.2454 334.661 75.471 334.995C75.6966 335.328 75.959 335.569 76.2582 335.716C76.5573 335.858 76.8687 335.929 77.1924 335.929C77.5161 335.929 77.8275 335.858 78.1266 335.716C78.4258 335.569 78.6882 335.328 78.9138 334.995C79.1443 334.661 79.3257 334.222 79.4581 333.678C79.5954 333.134 79.6641 332.459 79.6641 331.655ZM86.2691 336.922V329.47H87.0562C87.2426 329.47 87.3578 329.561 87.4019 329.742L87.4976 330.507C87.7722 330.169 88.0812 329.892 88.4245 329.676C88.7678 329.46 89.165 329.353 89.6162 329.353C90.1164 329.353 90.521 329.492 90.83 329.772C91.1438 330.051 91.3694 330.429 91.5067 330.905C91.6146 330.635 91.7519 330.402 91.9187 330.206C92.0903 330.01 92.2816 329.848 92.4925 329.72C92.7033 329.593 92.9265 329.5 93.1619 329.441C93.4022 329.382 93.6449 329.353 93.8902 329.353C94.2825 329.353 94.6307 329.416 94.9347 329.544C95.2437 329.666 95.5036 329.848 95.7145 330.088C95.9303 330.328 96.0946 330.625 96.2074 330.978C96.3202 331.326 96.3766 331.726 96.3766 332.177V336.922H95.0598V332.177C95.0598 331.594 94.9323 331.152 94.6773 330.853C94.4223 330.549 94.0544 330.397 93.5738 330.397C93.3581 330.397 93.1521 330.436 92.9559 330.515C92.7646 330.588 92.5955 330.699 92.4483 330.846C92.3012 330.993 92.1835 331.179 92.0952 331.405C92.0119 331.626 91.9702 331.883 91.9702 332.177V336.922H90.6534V332.177C90.6534 331.579 90.5333 331.133 90.293 330.839C90.0526 330.544 89.702 330.397 89.241 330.397C88.9173 330.397 88.6182 330.485 88.3435 330.662C88.0689 330.834 87.8163 331.069 87.5859 331.368V336.922H86.2691ZM99.7496 329.47V336.922H98.4402V329.47H99.7496ZM100.029 327.131C100.029 327.258 100.002 327.379 99.9483 327.491C99.8992 327.599 99.8306 327.697 99.7423 327.786C99.6589 327.869 99.5584 327.935 99.4407 327.984C99.3279 328.033 99.2077 328.058 99.0802 328.058C98.9527 328.058 98.8326 328.033 98.7198 327.984C98.6119 327.935 98.5162 327.869 98.4329 327.786C98.3495 327.697 98.2833 327.599 98.2342 327.491C98.1852 327.379 98.1607 327.258 98.1607 327.131C98.1607 327.003 98.1852 326.883 98.2342 326.771C98.2833 326.653 98.3495 326.552 98.4329 326.469C98.5162 326.381 98.6119 326.312 98.7198 326.263C98.8326 326.214 98.9527 326.189 99.0802 326.189C99.2077 326.189 99.3279 326.214 99.4407 326.263C99.5584 326.312 99.6589 326.381 99.7423 326.469C99.8306 326.552 99.8992 326.653 99.9483 326.771C100.002 326.883 100.029 327.003 100.029 327.131ZM103.137 330.552C103.299 330.37 103.47 330.206 103.652 330.059C103.833 329.912 104.025 329.787 104.226 329.684C104.432 329.576 104.647 329.495 104.873 329.441C105.104 329.382 105.351 329.353 105.616 329.353C106.023 329.353 106.381 329.421 106.69 329.559C107.004 329.691 107.264 329.882 107.47 330.132C107.681 330.378 107.84 330.674 107.948 331.022C108.056 331.371 108.11 331.756 108.11 332.177V336.922H106.793V332.177C106.793 331.613 106.663 331.177 106.403 330.868C106.148 330.554 105.758 330.397 105.233 330.397C104.846 330.397 104.483 330.49 104.145 330.677C103.811 330.863 103.502 331.116 103.218 331.434V336.922H101.901V329.47H102.688C102.875 329.47 102.99 329.561 103.034 329.742L103.137 330.552Z" fill="#202020"/>
<path opacity="0.7" d="M68.6507 279.553C69.0038 279.553 69.3225 279.497 69.607 279.384C69.8963 279.271 70.1415 279.114 70.3426 278.913C70.5486 278.712 70.7055 278.474 70.8134 278.2C70.9262 277.925 70.9826 277.626 70.9826 277.302C70.9826 276.959 70.9286 276.65 70.8207 276.375C70.7129 276.096 70.5584 275.86 70.3573 275.669C70.1611 275.473 69.9257 275.323 69.6511 275.22C69.3765 275.117 69.0749 275.066 68.7463 275.066C68.3932 275.066 68.0744 275.127 67.79 275.25C67.5055 275.368 67.2628 275.529 67.0617 275.735C66.8655 275.936 66.7135 276.172 66.6056 276.442C66.5026 276.706 66.4511 276.983 66.4511 277.273C66.4511 277.611 66.5002 277.92 66.5983 278.2C66.6963 278.479 66.8386 278.719 67.0249 278.921C67.2162 279.122 67.4467 279.279 67.7164 279.391C67.991 279.499 68.3025 279.553 68.6507 279.553ZM67.8856 273.933C67.7924 274.051 67.7017 274.166 67.6134 274.279C67.5301 274.387 67.4491 274.495 67.3707 274.602C67.6208 274.431 67.8954 274.298 68.1946 274.205C68.4937 274.112 68.8198 274.065 69.1729 274.065C69.5996 274.065 70.0017 274.137 70.3794 274.279C70.757 274.416 71.0856 274.62 71.3651 274.889C71.6495 275.154 71.8751 275.483 72.0419 275.875C72.2086 276.263 72.292 276.706 72.292 277.207C72.292 277.692 72.2037 278.143 72.0272 278.56C71.8506 278.977 71.603 279.34 71.2842 279.649C70.9703 279.958 70.5902 280.201 70.144 280.377C69.7026 280.554 69.2146 280.642 68.6801 280.642C68.1504 280.642 67.6698 280.559 67.2383 280.392C66.8067 280.22 66.4389 279.98 66.1348 279.671C65.8357 279.357 65.6027 278.979 65.436 278.538C65.2741 278.092 65.1932 277.594 65.1932 277.045C65.1932 276.584 65.2938 276.093 65.4948 275.573C65.7008 275.049 66.0269 274.49 66.4732 273.896L69.1509 270.299C69.2195 270.211 69.3127 270.137 69.4304 270.078C69.553 270.015 69.6928 269.983 69.8497 269.983H71.012L67.8856 273.933ZM81.025 275.257C81.025 276.179 80.9245 276.979 80.7234 277.655C80.5272 278.327 80.2575 278.884 79.9142 279.325C79.5709 279.767 79.1639 280.095 78.6931 280.311C78.2272 280.527 77.727 280.635 77.1924 280.635C76.6529 280.635 76.1503 280.527 75.6844 280.311C75.2234 280.095 74.8212 279.767 74.4779 279.325C74.1347 278.884 73.8649 278.327 73.6688 277.655C73.4726 276.979 73.3745 276.179 73.3745 275.257C73.3745 274.335 73.4726 273.536 73.6688 272.859C73.8649 272.182 74.1347 271.623 74.4779 271.182C74.8212 270.736 75.2234 270.404 75.6844 270.189C76.1503 269.973 76.6529 269.865 77.1924 269.865C77.727 269.865 78.2272 269.973 78.6931 270.189C79.1639 270.404 79.5709 270.736 79.9142 271.182C80.2575 271.623 80.5272 272.182 80.7234 272.859C80.9245 273.536 81.025 274.335 81.025 275.257ZM79.6641 275.257C79.6641 274.453 79.5954 273.779 79.4581 273.234C79.3257 272.685 79.1443 272.244 78.9138 271.91C78.6882 271.577 78.4258 271.339 78.1266 271.197C77.8275 271.049 77.5161 270.976 77.1924 270.976C76.8687 270.976 76.5573 271.049 76.2582 271.197C75.959 271.339 75.6966 271.577 75.471 271.91C75.2454 272.244 75.064 272.685 74.9267 273.234C74.7943 273.779 74.7281 274.453 74.7281 275.257C74.7281 276.061 74.7943 276.736 74.9267 277.28C75.064 277.824 75.2454 278.263 75.471 278.597C75.6966 278.93 75.959 279.171 76.2582 279.318C76.5573 279.46 76.8687 279.531 77.1924 279.531C77.5161 279.531 77.8275 279.46 78.1266 279.318C78.4258 279.171 78.6882 278.93 78.9138 278.597C79.1443 278.263 79.3257 277.824 79.4581 277.28C79.5954 276.736 79.6641 276.061 79.6641 275.257ZM86.2691 280.524V273.072H87.0562C87.2426 273.072 87.3578 273.163 87.4019 273.345L87.4976 274.11C87.7722 273.771 88.0812 273.494 88.4245 273.278C88.7678 273.063 89.165 272.955 89.6162 272.955C90.1164 272.955 90.521 273.094 90.83 273.374C91.1438 273.653 91.3694 274.031 91.5067 274.507C91.6146 274.237 91.7519 274.004 91.9187 273.808C92.0903 273.612 92.2816 273.45 92.4925 273.322C92.7033 273.195 92.9265 273.102 93.1619 273.043C93.4022 272.984 93.6449 272.955 93.8902 272.955C94.2825 272.955 94.6307 273.018 94.9347 273.146C95.2437 273.269 95.5036 273.45 95.7145 273.69C95.9303 273.931 96.0946 274.227 96.2074 274.58C96.3202 274.929 96.3766 275.328 96.3766 275.779V280.524H95.0598V275.779C95.0598 275.196 94.9323 274.754 94.6773 274.455C94.4223 274.151 94.0544 273.999 93.5738 273.999C93.3581 273.999 93.1521 274.038 92.9559 274.117C92.7646 274.191 92.5955 274.301 92.4483 274.448C92.3012 274.595 92.1835 274.781 92.0952 275.007C92.0119 275.228 91.9702 275.485 91.9702 275.779V280.524H90.6534V275.779C90.6534 275.181 90.5333 274.735 90.293 274.441C90.0526 274.146 89.702 273.999 89.241 273.999C88.9173 273.999 88.6182 274.088 88.3435 274.264C88.0689 274.436 87.8163 274.671 87.5859 274.97V280.524H86.2691ZM99.7496 273.072V280.524H98.4402V273.072H99.7496ZM100.029 270.733C100.029 270.861 100.002 270.981 99.9483 271.094C99.8992 271.201 99.8306 271.3 99.7423 271.388C99.6589 271.471 99.5584 271.537 99.4407 271.586C99.3279 271.635 99.2077 271.66 99.0802 271.66C98.9527 271.66 98.8326 271.635 98.7198 271.586C98.6119 271.537 98.5162 271.471 98.4329 271.388C98.3495 271.3 98.2833 271.201 98.2342 271.094C98.1852 270.981 98.1607 270.861 98.1607 270.733C98.1607 270.606 98.1852 270.485 98.2342 270.373C98.2833 270.255 98.3495 270.154 98.4329 270.071C98.5162 269.983 98.6119 269.914 98.7198 269.865C98.8326 269.816 98.9527 269.791 99.0802 269.791C99.2077 269.791 99.3279 269.816 99.4407 269.865C99.5584 269.914 99.6589 269.983 99.7423 270.071C99.8306 270.154 99.8992 270.255 99.9483 270.373C100.002 270.485 100.029 270.606 100.029 270.733ZM103.137 274.154C103.299 273.972 103.47 273.808 103.652 273.661C103.833 273.514 104.025 273.389 104.226 273.286C104.432 273.178 104.647 273.097 104.873 273.043C105.104 272.984 105.351 272.955 105.616 272.955C106.023 272.955 106.381 273.023 106.69 273.161C107.004 273.293 107.264 273.484 107.47 273.734C107.681 273.98 107.84 274.276 107.948 274.625C108.056 274.973 108.11 275.358 108.11 275.779V280.524H106.793V275.779C106.793 275.215 106.663 274.779 106.403 274.47C106.148 274.156 105.758 273.999 105.233 273.999C104.846 273.999 104.483 274.092 104.145 274.279C103.811 274.465 103.502 274.718 103.218 275.036V280.524H101.901V273.072H102.688C102.875 273.072 102.99 273.163 103.034 273.345L103.137 274.154Z" fill="#202020"/>
<path opacity="0.7" d="M66.4806 216.682C66.4806 217.015 66.5271 217.314 66.6203 217.579C66.7184 217.839 66.8557 218.06 67.0323 218.241C67.2137 218.423 67.432 218.56 67.687 218.653C67.9469 218.746 68.2363 218.793 68.555 218.793C68.9081 218.793 69.2195 218.737 69.4893 218.624C69.7639 218.506 69.9944 218.352 70.1808 218.16C70.3671 217.969 70.5093 217.748 70.6074 217.498C70.7055 217.248 70.7545 216.988 70.7545 216.719C70.7545 216.39 70.7006 216.093 70.5927 215.828C70.4897 215.559 70.345 215.331 70.1587 215.144C69.9723 214.958 69.7492 214.816 69.4893 214.718C69.2342 214.615 68.9523 214.563 68.6433 214.563C68.3196 214.563 68.0254 214.617 67.7605 214.725C67.4957 214.828 67.2677 214.973 67.0764 215.159C66.8852 215.345 66.738 215.569 66.635 215.828C66.5321 216.088 66.4806 216.373 66.4806 216.682ZM69.5408 219.926C69.6486 219.784 69.7492 219.649 69.8424 219.521C69.9355 219.394 70.0238 219.266 70.1072 219.139C69.8375 219.355 69.5334 219.519 69.195 219.632C68.8566 219.744 68.4986 219.801 68.121 219.801C67.7238 219.801 67.3461 219.735 66.9881 219.602C66.635 219.47 66.3236 219.276 66.0539 219.021C65.7842 218.761 65.5684 218.445 65.4065 218.072C65.2496 217.695 65.1711 217.263 65.1711 216.777C65.1711 216.316 65.257 215.885 65.4286 215.483C65.6003 215.081 65.8406 214.73 66.1495 214.431C66.4585 214.132 66.8263 213.896 67.253 213.725C67.6796 213.553 68.148 213.467 68.658 213.467C69.1631 213.467 69.6217 213.551 70.0336 213.717C70.4456 213.884 70.7987 214.117 71.0929 214.416C71.3872 214.715 71.6128 215.073 71.7697 215.49C71.9315 215.907 72.0125 216.368 72.0125 216.873C72.0125 217.177 71.983 217.466 71.9242 217.741C71.8702 218.011 71.7893 218.278 71.6814 218.543C71.5784 218.803 71.4509 219.063 71.2989 219.323C71.1469 219.578 70.9752 219.84 70.784 220.11L68.2166 223.817C68.1529 223.911 68.0622 223.987 67.9445 224.045C67.8268 224.099 67.6919 224.126 67.5399 224.126H66.3334L69.5408 219.926ZM81.025 218.859C81.025 219.781 80.9245 220.581 80.7234 221.257C80.5272 221.929 80.2575 222.486 79.9142 222.927C79.5709 223.369 79.1639 223.697 78.6931 223.913C78.2272 224.129 77.727 224.237 77.1924 224.237C76.6529 224.237 76.1503 224.129 75.6844 223.913C75.2234 223.697 74.8212 223.369 74.4779 222.927C74.1347 222.486 73.8649 221.929 73.6688 221.257C73.4726 220.581 73.3745 219.781 73.3745 218.859C73.3745 217.937 73.4726 217.138 73.6688 216.461C73.8649 215.784 74.1347 215.225 74.4779 214.784C74.8212 214.338 75.2234 214.007 75.6844 213.791C76.1503 213.575 76.6529 213.467 77.1924 213.467C77.727 213.467 78.2272 213.575 78.6931 213.791C79.1639 214.007 79.5709 214.338 79.9142 214.784C80.2575 215.225 80.5272 215.784 80.7234 216.461C80.9245 217.138 81.025 217.937 81.025 218.859ZM79.6641 218.859C79.6641 218.055 79.5954 217.381 79.4581 216.836C79.3257 216.287 79.1443 215.846 78.9138 215.512C78.6882 215.179 78.4258 214.941 78.1266 214.799C77.8275 214.651 77.5161 214.578 77.1924 214.578C76.8687 214.578 76.5573 214.651 76.2582 214.799C75.959 214.941 75.6966 215.179 75.471 215.512C75.2454 215.846 75.064 216.287 74.9267 216.836C74.7943 217.381 74.7281 218.055 74.7281 218.859C74.7281 219.664 74.7943 220.338 74.9267 220.882C75.064 221.427 75.2454 221.866 75.471 222.199C75.6966 222.532 75.959 222.773 76.2582 222.92C76.5573 223.062 76.8687 223.133 77.1924 223.133C77.5161 223.133 77.8275 223.062 78.1266 222.92C78.4258 222.773 78.6882 222.532 78.9138 222.199C79.1443 221.866 79.3257 221.427 79.4581 220.882C79.5954 220.338 79.6641 219.664 79.6641 218.859ZM86.2691 224.126V216.674H87.0562C87.2426 216.674 87.3578 216.765 87.4019 216.947L87.4976 217.712C87.7722 217.373 88.0812 217.096 88.4245 216.88C88.7678 216.665 89.165 216.557 89.6162 216.557C90.1164 216.557 90.521 216.697 90.83 216.976C91.1438 217.256 91.3694 217.633 91.5067 218.109C91.6146 217.839 91.7519 217.606 91.9187 217.41C92.0903 217.214 92.2816 217.052 92.4925 216.925C92.7033 216.797 92.9265 216.704 93.1619 216.645C93.4022 216.586 93.6449 216.557 93.8902 216.557C94.2825 216.557 94.6307 216.621 94.9347 216.748C95.2437 216.871 95.5036 217.052 95.7145 217.292C95.9303 217.533 96.0946 217.829 96.2074 218.182C96.3202 218.531 96.3766 218.93 96.3766 219.382V224.126H95.0598V219.382C95.0598 218.798 94.9323 218.357 94.6773 218.057C94.4223 217.753 94.0544 217.601 93.5738 217.601C93.3581 217.601 93.1521 217.641 92.9559 217.719C92.7646 217.793 92.5955 217.903 92.4483 218.05C92.3012 218.197 92.1835 218.384 92.0952 218.609C92.0119 218.83 91.9702 219.087 91.9702 219.382V224.126H90.6534V219.382C90.6534 218.783 90.5333 218.337 90.293 218.043C90.0526 217.748 89.702 217.601 89.241 217.601C88.9173 217.601 88.6182 217.69 88.3435 217.866C88.0689 218.038 87.8163 218.273 87.5859 218.572V224.126H86.2691ZM99.7496 216.674V224.126H98.4402V216.674H99.7496ZM100.029 214.335C100.029 214.463 100.002 214.583 99.9483 214.696C99.8992 214.804 99.8306 214.902 99.7423 214.99C99.6589 215.073 99.5584 215.139 99.4407 215.189C99.3279 215.238 99.2077 215.262 99.0802 215.262C98.9527 215.262 98.8326 215.238 98.7198 215.189C98.6119 215.139 98.5162 215.073 98.4329 214.99C98.3495 214.902 98.2833 214.804 98.2342 214.696C98.1852 214.583 98.1607 214.463 98.1607 214.335C98.1607 214.208 98.1852 214.088 98.2342 213.975C98.2833 213.857 98.3495 213.756 98.4329 213.673C98.5162 213.585 98.6119 213.516 98.7198 213.467C98.8326 213.418 98.9527 213.394 99.0802 213.394C99.2077 213.394 99.3279 213.418 99.4407 213.467C99.5584 213.516 99.6589 213.585 99.7423 213.673C99.8306 213.756 99.8992 213.857 99.9483 213.975C100.002 214.088 100.029 214.208 100.029 214.335ZM103.137 217.756C103.299 217.574 103.47 217.41 103.652 217.263C103.833 217.116 104.025 216.991 104.226 216.888C104.432 216.78 104.647 216.699 104.873 216.645C105.104 216.586 105.351 216.557 105.616 216.557C106.023 216.557 106.381 216.625 106.69 216.763C107.004 216.895 107.264 217.086 107.47 217.337C107.681 217.582 107.84 217.878 107.948 218.227C108.056 218.575 108.11 218.96 108.11 219.382V224.126H106.793V219.382C106.793 218.818 106.663 218.381 106.403 218.072C106.148 217.758 105.758 217.601 105.233 217.601C104.846 217.601 104.483 217.695 104.145 217.881C103.811 218.067 103.502 218.32 103.218 218.639V224.126H101.901V216.674H102.688C102.875 216.674 102.99 216.765 103.034 216.947L103.137 217.756Z" fill="#202020"/>
<path opacity="0.7" d="M71.1202 166.728V167.728H65.4706V166.728H67.729V159.541C67.729 159.325 67.7363 159.107 67.751 158.886L65.8752 160.497C65.8114 160.551 65.7477 160.586 65.6839 160.6C65.6202 160.61 65.5613 160.61 65.5074 160.6C65.4534 160.59 65.4019 160.571 65.3529 160.541C65.3088 160.512 65.2744 160.48 65.2499 160.446L64.838 159.879L67.9791 157.165H69.0457V166.728H71.1202ZM79.4266 166.485C79.5688 166.485 79.6816 166.527 79.7649 166.61C79.8483 166.694 79.89 166.802 79.89 166.934V167.728H72.8574V167.28C72.8574 167.187 72.877 167.091 72.9163 166.993C72.9555 166.895 73.0168 166.804 73.1002 166.721L76.4767 163.329C76.7562 163.045 77.0113 162.773 77.2417 162.513C77.4722 162.248 77.6684 161.983 77.8302 161.718C77.9921 161.454 78.1171 161.186 78.2054 160.917C78.2937 160.642 78.3378 160.35 78.3378 160.041C78.3378 159.732 78.2888 159.462 78.1907 159.232C78.0926 158.997 77.9578 158.803 77.7861 158.651C77.6194 158.499 77.4207 158.386 77.1903 158.312C76.9598 158.234 76.7121 158.195 76.4473 158.195C76.1775 158.195 75.9299 158.234 75.7043 158.312C75.4787 158.391 75.2776 158.501 75.1011 158.643C74.9294 158.781 74.7848 158.945 74.6671 159.136C74.5494 159.328 74.466 159.539 74.4169 159.769C74.3581 159.941 74.2772 160.056 74.1742 160.115C74.0761 160.169 73.9363 160.183 73.7549 160.159L73.0708 160.041C73.1394 159.561 73.2718 159.136 73.468 158.769C73.6691 158.396 73.9192 158.084 74.2183 157.834C74.5224 157.584 74.8681 157.395 75.2556 157.268C75.643 157.135 76.0623 157.069 76.5135 157.069C76.9598 157.069 77.3766 157.135 77.764 157.268C78.1515 157.4 78.4874 157.594 78.7718 157.849C79.0563 158.099 79.2794 158.406 79.4413 158.769C79.6031 159.131 79.684 159.543 79.684 160.004C79.684 160.397 79.6252 160.762 79.5075 161.1C79.3898 161.434 79.2304 161.753 79.0293 162.057C78.8282 162.361 78.5953 162.658 78.3305 162.947C78.0706 163.236 77.7935 163.528 77.4992 163.822L74.7186 166.662C74.9147 166.608 75.1133 166.566 75.3144 166.537C75.5155 166.502 75.7092 166.485 75.8956 166.485H79.4266ZM88.7922 162.461C88.7922 163.383 88.6917 164.183 88.4906 164.86C88.2944 165.531 88.0247 166.088 87.6814 166.529C87.3381 166.971 86.9311 167.299 86.4603 167.515C85.9944 167.731 85.4942 167.839 84.9596 167.839C84.4201 167.839 83.9175 167.731 83.4516 167.515C82.9906 167.299 82.5884 166.971 82.2451 166.529C81.9019 166.088 81.6321 165.531 81.436 164.86C81.2398 164.183 81.1417 163.383 81.1417 162.461C81.1417 161.539 81.2398 160.74 81.436 160.063C81.6321 159.386 81.9019 158.827 82.2451 158.386C82.5884 157.94 82.9906 157.609 83.4516 157.393C83.9175 157.177 84.4201 157.069 84.9596 157.069C85.4942 157.069 85.9944 157.177 86.4603 157.393C86.9311 157.609 87.3381 157.94 87.6814 158.386C88.0247 158.827 88.2944 159.386 88.4906 160.063C88.6917 160.74 88.7922 161.539 88.7922 162.461ZM87.4313 162.461C87.4313 161.657 87.3626 160.983 87.2253 160.438C87.0929 159.889 86.9115 159.448 86.681 159.114C86.4554 158.781 86.193 158.543 85.8938 158.401C85.5947 158.254 85.2833 158.18 84.9596 158.18C84.6359 158.18 84.3245 158.254 84.0254 158.401C83.7262 158.543 83.4638 158.781 83.2382 159.114C83.0126 159.448 82.8312 159.889 82.6939 160.438C82.5615 160.983 82.4953 161.657 82.4953 162.461C82.4953 163.266 82.5615 163.94 82.6939 164.484C82.8312 165.029 83.0126 165.468 83.2382 165.801C83.4638 166.135 83.7262 166.375 84.0254 166.522C84.3245 166.664 84.6359 166.735 84.9596 166.735C85.2833 166.735 85.5947 166.664 85.8938 166.522C86.193 166.375 86.4554 166.135 86.681 165.801C86.9115 165.468 87.0929 165.029 87.2253 164.484C87.3626 163.94 87.4313 163.266 87.4313 162.461ZM94.0363 167.728V160.277H94.8234C95.0098 160.277 95.125 160.367 95.1691 160.549L95.2648 161.314C95.5394 160.975 95.8484 160.698 96.1917 160.483C96.535 160.267 96.9322 160.159 97.3834 160.159C97.8836 160.159 98.2882 160.299 98.5972 160.578C98.911 160.858 99.1366 161.235 99.2739 161.711C99.3818 161.441 99.5191 161.208 99.6859 161.012C99.8575 160.816 100.049 160.654 100.26 160.527C100.471 160.399 100.694 160.306 100.929 160.247C101.169 160.188 101.412 160.159 101.657 160.159C102.05 160.159 102.398 160.223 102.702 160.35C103.011 160.473 103.271 160.654 103.482 160.895C103.697 161.135 103.862 161.432 103.975 161.785C104.087 162.133 104.144 162.532 104.144 162.984V167.728H102.827V162.984C102.827 162.4 102.699 161.959 102.444 161.66C102.189 161.355 101.822 161.203 101.341 161.203C101.125 161.203 100.919 161.243 100.723 161.321C100.532 161.395 100.363 161.505 100.216 161.652C100.068 161.799 99.9507 161.986 99.8624 162.211C99.7791 162.432 99.7374 162.689 99.7374 162.984V167.728H98.4206V162.984C98.4206 162.385 98.3005 161.939 98.0601 161.645C97.8198 161.351 97.4692 161.203 97.0082 161.203C96.6845 161.203 96.3854 161.292 96.1107 161.468C95.8361 161.64 95.5835 161.875 95.353 162.174V167.728H94.0363ZM107.517 160.277V167.728H106.207V160.277H107.517ZM107.796 157.937C107.796 158.065 107.769 158.185 107.715 158.298C107.666 158.406 107.598 158.504 107.509 158.592C107.426 158.675 107.326 158.742 107.208 158.791C107.095 158.84 106.975 158.864 106.847 158.864C106.72 158.864 106.6 158.84 106.487 158.791C106.379 158.742 106.283 158.675 106.2 158.592C106.117 158.504 106.05 158.406 106.001 158.298C105.952 158.185 105.928 158.065 105.928 157.937C105.928 157.81 105.952 157.69 106.001 157.577C106.05 157.459 106.117 157.359 106.2 157.275C106.283 157.187 106.379 157.118 106.487 157.069C106.6 157.02 106.72 156.996 106.847 156.996C106.975 156.996 107.095 157.02 107.208 157.069C107.326 157.118 107.426 157.187 107.509 157.275C107.598 157.359 107.666 157.459 107.715 157.577C107.769 157.69 107.796 157.81 107.796 157.937ZM110.904 161.358C111.066 161.176 111.238 161.012 111.419 160.865C111.601 160.718 111.792 160.593 111.993 160.49C112.199 160.382 112.415 160.301 112.64 160.247C112.871 160.188 113.118 160.159 113.383 160.159C113.79 160.159 114.148 160.228 114.457 160.365C114.771 160.497 115.031 160.689 115.237 160.939C115.448 161.184 115.607 161.481 115.715 161.829C115.823 162.177 115.877 162.562 115.877 162.984V167.728H114.56V162.984C114.56 162.42 114.43 161.983 114.17 161.674C113.915 161.36 113.525 161.203 113.001 161.203C112.613 161.203 112.25 161.297 111.912 161.483C111.578 161.669 111.27 161.922 110.985 162.241V167.728H109.668V160.277H110.455C110.642 160.277 110.757 160.367 110.801 160.549L110.904 161.358Z" fill="#202020"/>
<g filter="url(#filter1_d_2_908)">
<rect x="353.579" y="152.728" width="79.6167" height="35.7125" rx="9.80833" fill="#202020" shape-rendering="crispEdges"/>
<path d="M366.046 168.399C366.046 168.788 366.101 169.138 366.209 169.446C366.324 169.75 366.484 170.007 366.69 170.219C366.902 170.431 367.156 170.591 367.454 170.699C367.757 170.808 368.095 170.863 368.466 170.863C368.878 170.863 369.242 170.797 369.556 170.665C369.877 170.528 370.146 170.348 370.363 170.124C370.581 169.901 370.746 169.644 370.861 169.352C370.975 169.06 371.033 168.757 371.033 168.442C371.033 168.059 370.97 167.713 370.844 167.404C370.724 167.089 370.555 166.823 370.337 166.606C370.12 166.388 369.86 166.222 369.556 166.108C369.259 165.988 368.93 165.928 368.569 165.928C368.192 165.928 367.849 165.991 367.54 166.117C367.231 166.237 366.965 166.405 366.741 166.623C366.518 166.84 366.347 167.101 366.226 167.404C366.106 167.707 366.046 168.039 366.046 168.399ZM369.616 172.184C369.742 172.018 369.86 171.861 369.968 171.712C370.077 171.563 370.18 171.415 370.277 171.266C369.963 171.518 369.608 171.709 369.213 171.841C368.818 171.973 368.401 172.038 367.96 172.038C367.497 172.038 367.056 171.961 366.638 171.807C366.226 171.652 365.863 171.426 365.548 171.129C365.234 170.825 364.982 170.456 364.793 170.021C364.61 169.581 364.519 169.077 364.519 168.511C364.519 167.973 364.619 167.47 364.819 167.001C365.019 166.531 365.3 166.122 365.66 165.773C366.02 165.424 366.45 165.15 366.947 164.949C367.445 164.749 367.992 164.649 368.587 164.649C369.176 164.649 369.711 164.746 370.191 164.941C370.672 165.135 371.084 165.407 371.427 165.756C371.771 166.105 372.034 166.523 372.217 167.009C372.406 167.495 372.5 168.033 372.5 168.623C372.5 168.977 372.466 169.315 372.397 169.635C372.334 169.95 372.24 170.262 372.114 170.571C371.994 170.874 371.845 171.177 371.668 171.48C371.49 171.778 371.29 172.084 371.067 172.399L368.072 176.724C367.997 176.833 367.891 176.922 367.754 176.99C367.617 177.053 367.459 177.085 367.282 177.085H365.875L369.616 172.184ZM376.003 168.399C376.003 168.788 376.057 169.138 376.166 169.446C376.281 169.75 376.441 170.007 376.647 170.219C376.858 170.431 377.113 170.591 377.411 170.699C377.714 170.808 378.051 170.863 378.423 170.863C378.835 170.863 379.198 170.797 379.513 170.665C379.834 170.528 380.102 170.348 380.32 170.124C380.537 169.901 380.703 169.644 380.818 169.352C380.932 169.06 380.989 168.757 380.989 168.442C380.989 168.059 380.926 167.713 380.801 167.404C380.68 167.089 380.512 166.823 380.294 166.606C380.077 166.388 379.816 166.222 379.513 166.108C379.216 165.988 378.887 165.928 378.526 165.928C378.149 165.928 377.805 165.991 377.496 166.117C377.187 166.237 376.921 166.405 376.698 166.623C376.475 166.84 376.303 167.101 376.183 167.404C376.063 167.707 376.003 168.039 376.003 168.399ZM379.573 172.184C379.699 172.018 379.816 171.861 379.925 171.712C380.034 171.563 380.137 171.415 380.234 171.266C379.919 171.518 379.565 171.709 379.17 171.841C378.775 171.973 378.357 172.038 377.917 172.038C377.453 172.038 377.013 171.961 376.595 171.807C376.183 171.652 375.82 171.426 375.505 171.129C375.191 170.825 374.939 170.456 374.75 170.021C374.567 169.581 374.475 169.077 374.475 168.511C374.475 167.973 374.575 167.47 374.776 167.001C374.976 166.531 375.256 166.122 375.617 165.773C375.977 165.424 376.406 165.15 376.904 164.949C377.402 164.749 377.948 164.649 378.543 164.649C379.133 164.649 379.668 164.746 380.148 164.941C380.629 165.135 381.041 165.407 381.384 165.756C381.727 166.105 381.991 166.523 382.174 167.009C382.362 167.495 382.457 168.033 382.457 168.623C382.457 168.977 382.423 169.315 382.354 169.635C382.291 169.95 382.197 170.262 382.071 170.571C381.951 170.874 381.802 171.177 381.624 171.48C381.447 171.778 381.247 172.084 381.024 172.399L378.028 176.724C377.954 176.833 377.848 176.922 377.711 176.99C377.574 177.053 377.416 177.085 377.239 177.085H375.831L379.573 172.184ZM389.133 177.085V168.391H390.051C390.269 168.391 390.403 168.497 390.455 168.708L390.566 169.601C390.886 169.206 391.247 168.883 391.647 168.631C392.048 168.379 392.511 168.254 393.038 168.254C393.621 168.254 394.093 168.417 394.454 168.743C394.82 169.069 395.083 169.509 395.243 170.064C395.369 169.75 395.53 169.478 395.724 169.249C395.924 169.02 396.147 168.831 396.393 168.683C396.639 168.534 396.9 168.425 397.174 168.357C397.455 168.288 397.738 168.254 398.024 168.254C398.482 168.254 398.888 168.328 399.243 168.477C399.603 168.62 399.906 168.831 400.152 169.112C400.404 169.392 400.596 169.738 400.728 170.15C400.859 170.556 400.925 171.023 400.925 171.549V177.085H399.389V171.549C399.389 170.868 399.24 170.353 398.942 170.004C398.645 169.65 398.216 169.472 397.655 169.472C397.403 169.472 397.163 169.518 396.934 169.61C396.711 169.695 396.514 169.824 396.342 169.996C396.17 170.167 396.033 170.385 395.93 170.648C395.833 170.905 395.784 171.206 395.784 171.549V177.085H394.248V171.549C394.248 170.851 394.108 170.33 393.827 169.987C393.547 169.644 393.138 169.472 392.6 169.472C392.222 169.472 391.873 169.575 391.553 169.781C391.233 169.981 390.938 170.256 390.669 170.605V177.085H389.133ZM404.86 168.391V177.085H403.332V168.391H404.86ZM405.186 165.662C405.186 165.81 405.155 165.951 405.092 166.082C405.035 166.208 404.955 166.323 404.852 166.426C404.754 166.523 404.637 166.6 404.5 166.657C404.368 166.714 404.228 166.743 404.079 166.743C403.93 166.743 403.79 166.714 403.659 166.657C403.533 166.6 403.421 166.523 403.324 166.426C403.227 166.323 403.149 166.208 403.092 166.082C403.035 165.951 403.006 165.81 403.006 165.662C403.006 165.513 403.035 165.373 403.092 165.241C403.149 165.104 403.227 164.987 403.324 164.889C403.421 164.786 403.533 164.706 403.659 164.649C403.79 164.592 403.93 164.563 404.079 164.563C404.228 164.563 404.368 164.592 404.5 164.649C404.637 164.706 404.754 164.786 404.852 164.889C404.955 164.987 405.035 165.104 405.092 165.241C405.155 165.373 405.186 165.513 405.186 165.662ZM408.812 169.652C409.001 169.441 409.201 169.249 409.413 169.077C409.624 168.906 409.848 168.76 410.082 168.64C410.322 168.514 410.574 168.419 410.837 168.357C411.106 168.288 411.395 168.254 411.704 168.254C412.179 168.254 412.597 168.334 412.957 168.494C413.323 168.648 413.627 168.871 413.867 169.163C414.113 169.449 414.299 169.795 414.425 170.202C414.551 170.608 414.614 171.057 414.614 171.549V177.085H413.077V171.549C413.077 170.891 412.926 170.382 412.623 170.021C412.325 169.655 411.87 169.472 411.258 169.472C410.806 169.472 410.383 169.581 409.988 169.798C409.599 170.016 409.238 170.31 408.906 170.682V177.085H407.37V168.391H408.288C408.506 168.391 408.64 168.497 408.692 168.708L408.812 169.652ZM422.005 169.824C421.936 169.95 421.83 170.013 421.687 170.013C421.602 170.013 421.504 169.981 421.396 169.918C421.287 169.856 421.152 169.787 420.992 169.713C420.838 169.632 420.652 169.561 420.434 169.498C420.217 169.429 419.96 169.395 419.662 169.395C419.405 169.395 419.173 169.429 418.967 169.498C418.761 169.561 418.584 169.65 418.435 169.764C418.292 169.878 418.18 170.013 418.1 170.167C418.026 170.316 417.988 170.479 417.988 170.657C417.988 170.88 418.051 171.066 418.177 171.214C418.309 171.363 418.481 171.492 418.692 171.601C418.904 171.709 419.144 171.807 419.413 171.892C419.682 171.973 419.957 172.061 420.237 172.158C420.523 172.25 420.801 172.353 421.07 172.467C421.338 172.582 421.579 172.725 421.79 172.897C422.002 173.068 422.171 173.28 422.297 173.532C422.428 173.778 422.494 174.075 422.494 174.424C422.494 174.825 422.423 175.197 422.28 175.54C422.137 175.877 421.925 176.172 421.645 176.424C421.364 176.67 421.021 176.864 420.615 177.007C420.208 177.15 419.739 177.222 419.207 177.222C418.601 177.222 418.051 177.125 417.559 176.93C417.067 176.73 416.65 176.475 416.306 176.166L416.667 175.583C416.713 175.508 416.767 175.451 416.83 175.411C416.893 175.371 416.973 175.351 417.07 175.351C417.173 175.351 417.282 175.391 417.396 175.471C417.511 175.551 417.648 175.64 417.808 175.737C417.974 175.835 418.174 175.923 418.409 176.003C418.644 176.083 418.935 176.123 419.284 176.123C419.582 176.123 419.842 176.086 420.065 176.012C420.289 175.932 420.474 175.826 420.623 175.694C420.772 175.563 420.881 175.411 420.949 175.24C421.024 175.068 421.061 174.885 421.061 174.69C421.061 174.45 420.995 174.253 420.864 174.098C420.738 173.938 420.569 173.803 420.357 173.695C420.146 173.58 419.902 173.483 419.628 173.403C419.359 173.317 419.081 173.228 418.795 173.137C418.515 173.045 418.237 172.942 417.963 172.828C417.694 172.708 417.454 172.559 417.242 172.382C417.03 172.204 416.858 171.987 416.727 171.729C416.601 171.466 416.538 171.149 416.538 170.777C416.538 170.445 416.607 170.127 416.744 169.824C416.881 169.515 417.082 169.246 417.345 169.017C417.608 168.783 417.931 168.597 418.315 168.46C418.698 168.322 419.136 168.254 419.628 168.254C420.2 168.254 420.712 168.345 421.164 168.528C421.622 168.706 422.016 168.952 422.348 169.266L422.005 169.824Z" fill="white"/>
</g>
<rect x="142.7" y="329.278" width="34.3291" height="63.7541" rx="17.1646" fill="#E2F5FB"/>
<rect x="189.289" y="329.278" width="34.3291" height="63.7541" rx="17.1646" fill="#E2F5FB"/>
<rect x="235.879" y="309.662" width="34.3291" height="83.3708" rx="17.1646" fill="#E2F5FB"/>
<rect x="282.469" y="282.689" width="34.3291" height="110.344" rx="17.1646" fill="#E2F5FB"/>
<rect x="329.058" y="263.072" width="34.3291" height="129.96" rx="17.1646" fill="#E2F5FB"/>
<rect x="375.648" y="198.092" width="34.3291" height="194.94" rx="17.1646" fill="#003446"/>
<g filter="url(#filter2_d_2_908)">
<circle cx="392.812" cy="214.03" r="9.80833" stroke="white" stroke-width="2.45208" shape-rendering="crispEdges"/>
</g>
<rect x="422.237" y="243.456" width="34.3291" height="149.577" rx="17.1646" fill="#E2F5FB"/>
<rect x="468.827" y="287.593" width="34.3291" height="105.439" rx="17.1646" fill="#E2F5FB"/>
<rect x="515.416" y="320.696" width="34.3291" height="72.3364" rx="17.1646" fill="#E2F5FB"/>
<rect x="562.006" y="339.087" width="34.3291" height="53.9458" rx="17.1646" fill="#E2F5FB"/>
<rect x="608.595" y="343.991" width="34.3291" height="49.0416" rx="17.1646" fill="#E2F5FB"/>
</g>
<defs>
<filter id="filter0_d_2_908" x="0.530992" y="0.340811" width="884.298" height="577.788" filterUnits="userSpaceOnUse" color-interpolation-filters="sRGB">
<feFlood flood-opacity="0" result="BackgroundImageFix"/>
<feColorMatrix in="SourceAlpha" type="matrix" values="0 0 0 0 0 0 0 0 0 0 0 0 0 0 0 0 0 0 127 0" result="hardAlpha"/>
<feOffset dx="-4.07817" dy="-3.26253"/>
<feGaussianBlur stdDeviation="10.1954"/>
<feComposite in2="hardAlpha" operator="out"/>
<feColorMatrix type="matrix" values="0 0 0 0 0 0 0 0 0 0 0 0 0 0 0 0 0 0 0.03 0"/>
<feBlend mode="normal" in2="BackgroundImageFix" result="effect1_dropShadow_2_908"/>
<feBlend mode="normal" in="SourceGraphic" in2="effect1_dropShadow_2_908" result="shape"/>
</filter>
<filter id="filter1_d_2_908" x="341.319" y="145.372" width="104.137" height="60.2333" filterUnits="userSpaceOnUse" color-interpolation-filters="sRGB">
<feFlood flood-opacity="0" result="BackgroundImageFix"/>
<feColorMatrix in="SourceAlpha" type="matrix" values="0 0 0 0 0 0 0 0 0 0 0 0 0 0 0 0 0 0 127 0" result="hardAlpha"/>
<feOffset dy="4.90416"/>
<feGaussianBlur stdDeviation="6.1302"/>
<feComposite in2="hardAlpha" operator="out"/>
<feColorMatrix type="matrix" values="0 0 0 0 0.631373 0 0 0 0 0.631373 0 0 0 0 0.631373 0 0 0 0.12 0"/>
<feBlend mode="normal" in2="BackgroundImageFix" result="effect1_dropShadow_2_908"/>
<feBlend mode="normal" in="SourceGraphic" in2="effect1_dropShadow_2_908" result="shape"/>
</filter>
<filter id="filter2_d_2_908" x="376.874" y="200.544" width="31.8771" height="31.8771" filterUnits="userSpaceOnUse" color-interpolation-filters="sRGB">
<feFlood flood-opacity="0" result="BackgroundImageFix"/>
<feColorMatrix in="SourceAlpha" type="matrix" values="0 0 0 0 0 0 0 0 0 0 0 0 0 0 0 0 0 0 127 0" result="hardAlpha"/>
<feOffset dy="2.45208"/>
<feGaussianBlur stdDeviation="2.45208"/>
<feComposite in2="hardAlpha" operator="out"/>
<feColorMatrix type="matrix" values="0 0 0 0 0 0 0 0 0 0 0 0 0 0 0 0 0 0 0.18 0"/>
<feBlend mode="normal" in2="BackgroundImageFix" result="effect1_dropShadow_2_908"/>
<feBlend mode="normal" in="SourceGraphic" in2="effect1_dropShadow_2_908" result="shape"/>
</filter>
</defs>
</svg>
