<svg width="82" height="82" viewBox="0 0 82 82" fill="none" xmlns="http://www.w3.org/2000/svg">
<rect x="1" y="1" width="80" height="80" rx="8" fill="white"/>
<rect x="0.5" y="0.5" width="81" height="81" rx="8.5" stroke="#003446" stroke-opacity="0.24"/>
<path d="M29.9821 20.7857V20.7857C25.9879 20.7857 22.75 24.0237 22.75 28.0179V55.2C22.75 59.6262 26.3381 63.2143 30.7643 63.2143H40.5893M29.9821 20.7857V20.7857C29.9821 19.4543 31.0615 18.375 32.3929 18.375H34.8036M29.9821 20.7857V20.7857C29.9821 22.3834 31.2773 23.6786 32.875 23.6786H44.9286C46.5263 23.6786 47.8214 22.3834 47.8214 20.7857V20.7857M47.8214 20.7857H48.4857C52.9119 20.7857 56.5 24.3738 56.5 28.8V46.3393M47.8214 20.7857V20.7857C47.8214 19.4543 46.7421 18.375 45.4107 18.375H43M34.8036 18.375V18.375C34.8036 16.511 36.3146 15 38.1786 15H39.625C41.489 15 43 16.511 43 18.375V18.375M34.8036 18.375H43" stroke="#204D5D" stroke-width="1.5" stroke-linecap="round"/>
<path d="M28.0536 33.8036L29.9822 35.7322L35.2857 30.4286M39.625 33.8036H49.75" stroke="#BCCACE" stroke-width="1.5" stroke-linecap="round" stroke-linejoin="round"/>
<path d="M28.0536 43.4464L29.9822 45.375L35.2857 40.0714M39.625 43.4464H49.75" stroke="#C9F0F8" stroke-width="1.5" stroke-linecap="round" stroke-linejoin="round"/>
<path d="M28.0536 53.0894L29.9822 55.0179L35.2857 49.7144M39.625 53.0894H42.5179" stroke="#204D5D" stroke-width="1.5" stroke-linecap="round" stroke-linejoin="round"/>
<path d="M50.3636 60.8275L52.5727 63.1705L58.6477 56.7273" stroke="#204D5D" stroke-width="1.5" stroke-linecap="round" stroke-linejoin="round"/>
<circle cx="54.0893" cy="59.8393" r="9.16072" stroke="#204D5D" stroke-width="1.5" stroke-linecap="round"/>
</svg>
