<svg xmlns="http://www.w3.org/2000/svg" width="80" height="80" viewBox="0 0 80 80" fill="none">
  <path d="M22.1393 34.5674V35.2097H18.4168V34.5674H19.9048V29.9536C19.9048 29.8151 19.9097 29.675 19.9194 29.5333L18.6834 30.5675C18.6414 30.6021 18.5994 30.6242 18.5574 30.6336C18.5154 30.6399 18.4766 30.6399 18.4411 30.6336C18.4055 30.6273 18.3716 30.6147 18.3393 30.5958C18.3102 30.5769 18.2876 30.5565 18.2714 30.5344L18 30.1708L20.0696 28.4282H20.7724V34.5674H22.1393Z" fill="#BCCACE"/>
  <path d="M22.1393 44.1824V44.8246H18.4168V44.1824H19.9048V39.5685C19.9048 39.43 19.9097 39.2899 19.9194 39.1482L18.6834 40.1824C18.6414 40.2171 18.5994 40.2391 18.5574 40.2486C18.5154 40.2548 18.4766 40.2548 18.4411 40.2486C18.4055 40.2423 18.3716 40.2297 18.3393 40.2108C18.3102 40.1919 18.2876 40.1714 18.2714 40.1494L18 39.7857L20.0696 38.0432H20.7724V44.1824H22.1393Z" fill="#BCCACE"/>
  <path d="M23.0408 51.1197C23.0408 51.7115 22.9746 52.2247 22.8421 52.6592C22.7128 53.0905 22.5351 53.4478 22.3089 53.7312C22.0827 54.0145 21.8145 54.2255 21.5043 54.364C21.1974 54.5025 20.8678 54.5718 20.5156 54.5718C20.1601 54.5718 19.8289 54.5025 19.5219 54.364C19.2182 54.2255 18.9532 54.0145 18.727 53.7312C18.5009 53.4478 18.3231 53.0905 18.1939 52.6592C18.0646 52.2247 18 51.7115 18 51.1197C18 50.5278 18.0646 50.0146 18.1939 49.5801C18.3231 49.1457 18.5009 48.7868 18.727 48.5034C18.9532 48.2169 19.2182 48.0044 19.5219 47.8659C19.8289 47.7274 20.1601 47.6581 20.5156 47.6581C20.8678 47.6581 21.1974 47.7274 21.5043 47.8659C21.8145 48.0044 22.0827 48.2169 22.3089 48.5034C22.5351 48.7868 22.7128 49.1457 22.8421 49.5801C22.9746 50.0146 23.0408 50.5278 23.0408 51.1197ZM22.1441 51.1197C22.1441 50.6033 22.0989 50.1704 22.0084 49.821C21.9212 49.4684 21.8016 49.185 21.6497 48.9709C21.5011 48.7569 21.3282 48.6042 21.1311 48.5129C20.934 48.4184 20.7288 48.3712 20.5156 48.3712C20.3023 48.3712 20.0971 48.4184 19.9 48.5129C19.7029 48.6042 19.53 48.7569 19.3814 48.9709C19.2327 49.185 19.1132 49.4684 19.0227 49.821C18.9355 50.1704 18.8918 50.6033 18.8918 51.1197C18.8918 51.636 18.9355 52.0689 19.0227 52.4183C19.1132 52.7678 19.2327 53.0496 19.3814 53.2637C19.53 53.4777 19.7029 53.632 19.9 53.7265C20.0971 53.8178 20.3023 53.8634 20.5156 53.8634C20.7288 53.8634 20.934 53.8178 21.1311 53.7265C21.3282 53.632 21.5011 53.4777 21.6497 53.2637C21.8016 53.0496 21.9212 52.7678 22.0084 52.4183C22.0989 52.0689 22.1441 51.636 22.1441 51.1197Z" fill="#BCCACE"/>
  <path d="M29.1189 24.9525V25.5947H25.3964V24.9525H26.8844V20.3386C26.8844 20.2001 26.8893 20.06 26.899 19.9183L25.663 20.9526C25.621 20.9872 25.579 21.0092 25.537 21.0187C25.495 21.025 25.4562 21.025 25.4207 21.0187C25.3851 21.0124 25.3512 20.9998 25.3189 20.9809C25.2898 20.962 25.2672 20.9415 25.251 20.9195L24.9796 20.5559L27.0492 18.8133H27.752V24.9525H29.1189Z" fill="#BCCACE"/>
  <path d="M29.1189 34.5674V35.2097H25.3964V34.5674H26.8844V29.9536C26.8844 29.8151 26.8893 29.675 26.899 29.5333L25.663 30.5675C25.621 30.6021 25.579 30.6242 25.537 30.6336C25.495 30.6399 25.4562 30.6399 25.4207 30.6336C25.3851 30.6273 25.3512 30.6147 25.3189 30.5958C25.2898 30.5769 25.2672 30.5565 25.251 30.5344L24.9796 30.1708L27.0492 28.4282H27.752V34.5674H29.1189Z" fill="#BCCACE"/>
  <path d="M29.1189 44.1824V44.8246H25.3964V44.1824H26.8844V39.5685C26.8844 39.43 26.8893 39.2899 26.899 39.1482L25.663 40.1824C25.621 40.2171 25.579 40.2391 25.537 40.2486C25.495 40.2548 25.4562 40.2548 25.4207 40.2486C25.3851 40.2423 25.3512 40.2297 25.3189 40.2108C25.2898 40.1919 25.2672 40.1714 25.251 40.1494L24.9796 39.7857L27.0492 38.0432H27.752V44.1824H29.1189Z" fill="#BCCACE"/>
  <path d="M30.0204 51.1197C30.0204 51.7115 29.9542 52.2247 29.8217 52.6592C29.6924 53.0905 29.5147 53.4478 29.2885 53.7312C29.0623 54.0145 28.7941 54.2255 28.4839 54.364C28.177 54.5025 27.8474 54.5718 27.4952 54.5718C27.1397 54.5718 26.8085 54.5025 26.5015 54.364C26.1978 54.2255 25.9328 54.0145 25.7066 53.7312C25.4804 53.4478 25.3027 53.0905 25.1735 52.6592C25.0442 52.2247 24.9796 51.7115 24.9796 51.1197C24.9796 50.5278 25.0442 50.0146 25.1735 49.5801C25.3027 49.1457 25.4804 48.7868 25.7066 48.5034C25.9328 48.2169 26.1978 48.0044 26.5015 47.8659C26.8085 47.7274 27.1397 47.6581 27.4952 47.6581C27.8474 47.6581 28.177 47.7274 28.4839 47.8659C28.7941 48.0044 29.0623 48.2169 29.2885 48.5034C29.5147 48.7868 29.6924 49.1457 29.8217 49.5801C29.9542 50.0146 30.0204 50.5278 30.0204 51.1197ZM29.1237 51.1197C29.1237 50.6033 29.0785 50.1704 28.988 49.821C28.9008 49.4684 28.7812 49.185 28.6293 48.9709C28.4807 48.7569 28.3078 48.6042 28.1107 48.5129C27.9136 48.4184 27.7084 48.3712 27.4952 48.3712C27.2819 48.3712 27.0767 48.4184 26.8796 48.5129C26.6825 48.6042 26.5096 48.7569 26.361 48.9709C26.2123 49.185 26.0928 49.4684 26.0023 49.821C25.9151 50.1704 25.8714 50.6033 25.8714 51.1197C25.8714 51.636 25.9151 52.0689 26.0023 52.4183C26.0928 52.7678 26.2123 53.0496 26.361 53.2637C26.5096 53.4777 26.6825 53.632 26.8796 53.7265C27.0767 53.8178 27.2819 53.8634 27.4952 53.8634C27.7084 53.8634 27.9136 53.8178 28.1107 53.7265C28.3078 53.632 28.4807 53.4777 28.6293 53.2637C28.7812 53.0496 28.9008 52.7678 28.988 52.4183C29.0785 52.0689 29.1237 51.636 29.1237 51.1197Z" fill="#BCCACE"/>
  <path d="M29.1189 63.5445V64.1867H25.3964V63.5445H26.8844V58.9306C26.8844 58.7921 26.8893 58.652 26.899 58.5103L25.663 59.5445C25.621 59.5792 25.579 59.6012 25.537 59.6107C25.495 59.617 25.4562 59.617 25.4207 59.6107C25.3851 59.6044 25.3512 59.5918 25.3189 59.5729C25.2898 59.554 25.2672 59.5335 25.251 59.5115L24.9796 59.1479L27.0492 57.4053H27.752V63.5445H29.1189Z" fill="#BCCACE"/>
  <path d="M36.0985 15.1392V15.7815H32.376V15.1392H33.864V10.5254C33.864 10.3868 33.8689 10.2467 33.8786 10.1051L32.6426 11.1393C32.6006 11.1739 32.5586 11.1959 32.5166 11.2054C32.4746 11.2117 32.4358 11.2117 32.4003 11.2054C32.3647 11.1991 32.3308 11.1865 32.2985 11.1676C32.2694 11.1487 32.2468 11.1283 32.2306 11.1062L31.9592 10.7426L34.0288 9H34.7316V15.1392H36.0985Z" fill="#BCCACE"/>
  <path d="M37 22.0765C37 22.6684 36.9338 23.1816 36.8013 23.616C36.672 24.0473 36.4943 24.4047 36.2681 24.688C36.0419 24.9714 35.7737 25.1823 35.4635 25.3208C35.1565 25.4594 34.827 25.5286 34.4747 25.5286C34.1193 25.5286 33.7881 25.4594 33.4811 25.3208C33.1774 25.1823 32.9124 24.9714 32.6862 24.688C32.46 24.4047 32.2823 24.0473 32.1531 23.616C32.0238 23.1816 31.9592 22.6684 31.9592 22.0765C31.9592 21.4846 32.0238 20.9714 32.1531 20.537C32.2823 20.1025 32.46 19.7436 32.6862 19.4603C32.9124 19.1738 33.1774 18.9613 33.4811 18.8227C33.7881 18.6842 34.1193 18.6149 34.4747 18.6149C34.827 18.6149 35.1565 18.6842 35.4635 18.8227C35.7737 18.9613 36.0419 19.1738 36.2681 19.4603C36.4943 19.7436 36.672 20.1025 36.8013 20.537C36.9338 20.9714 37 21.4846 37 22.0765ZM36.1033 22.0765C36.1033 21.5602 36.0581 21.1273 35.9676 20.7778C35.8804 20.4252 35.7608 20.1419 35.6089 19.9278C35.4603 19.7137 35.2874 19.561 35.0903 19.4697C34.8932 19.3753 34.688 19.328 34.4747 19.328C34.2615 19.328 34.0563 19.3753 33.8592 19.4697C33.6621 19.561 33.4892 19.7137 33.3406 19.9278C33.1919 20.1419 33.0724 20.4252 32.9819 20.7778C32.8946 21.1273 32.851 21.5602 32.851 22.0765C32.851 22.5928 32.8946 23.0257 32.9819 23.3752C33.0724 23.7246 33.1919 24.0064 33.3406 24.2205C33.4892 24.4346 33.6621 24.5889 33.8592 24.6833C34.0563 24.7746 34.2615 24.8203 34.4747 24.8203C34.688 24.8203 34.8932 24.7746 35.0903 24.6833C35.2874 24.5889 35.4603 24.4346 35.6089 24.2205C35.7608 24.0064 35.8804 23.7246 35.9676 23.3752C36.0581 23.0257 36.1033 22.5928 36.1033 22.0765Z" fill="#BCCACE"/>
  <path d="M37 31.8237C37 32.4156 36.9338 32.9287 36.8013 33.3632C36.672 33.7945 36.4943 34.1518 36.2681 34.4352C36.0419 34.7185 35.7737 34.9295 35.4635 35.068C35.1565 35.2065 34.827 35.2758 34.4747 35.2758C34.1193 35.2758 33.7881 35.2065 33.4811 35.068C33.1774 34.9295 32.9124 34.7185 32.6862 34.4352C32.46 34.1518 32.2823 33.7945 32.1531 33.3632C32.0238 32.9287 31.9592 32.4156 31.9592 31.8237C31.9592 31.2318 32.0238 30.7186 32.1531 30.2841C32.2823 29.8497 32.46 29.4908 32.6862 29.2074C32.9124 28.9209 33.1774 28.7084 33.4811 28.5699C33.7881 28.4314 34.1193 28.3621 34.4747 28.3621C34.827 28.3621 35.1565 28.4314 35.4635 28.5699C35.7737 28.7084 36.0419 28.9209 36.2681 29.2074C36.4943 29.4908 36.672 29.8497 36.8013 30.2841C36.9338 30.7186 37 31.2318 37 31.8237ZM36.1033 31.8237C36.1033 31.3073 36.0581 30.8745 35.9676 30.525C35.8804 30.1724 35.7608 29.889 35.6089 29.6749C35.4603 29.4609 35.2874 29.3082 35.0903 29.2169C34.8932 29.1224 34.688 29.0752 34.4747 29.0752C34.2615 29.0752 34.0563 29.1224 33.8592 29.2169C33.6621 29.3082 33.4892 29.4609 33.3406 29.6749C33.1919 29.889 33.0724 30.1724 32.9819 30.525C32.8946 30.8745 32.851 31.3073 32.851 31.8237C32.851 32.34 32.8946 32.7729 32.9819 33.1223C33.0724 33.4718 33.1919 33.7536 33.3406 33.9677C33.4892 34.1818 33.6621 34.336 33.8592 34.4305C34.0563 34.5218 34.2615 34.5674 34.4747 34.5674C34.688 34.5674 34.8932 34.5218 35.0903 34.4305C35.2874 34.336 35.4603 34.1818 35.6089 33.9677C35.7608 33.7536 35.8804 33.4718 35.9676 33.1223C36.0581 32.7729 36.1033 32.34 36.1033 31.8237Z" fill="#BCCACE"/>
  <path d="M36.0985 44.2485V44.8907H32.376V44.2485H33.864V39.6346C33.864 39.4961 33.8689 39.356 33.8786 39.2143L32.6426 40.2485C32.6006 40.2832 32.5586 40.3052 32.5166 40.3147C32.4746 40.321 32.4358 40.321 32.4003 40.3147C32.3647 40.3084 32.3308 40.2958 32.2985 40.2769C32.2694 40.258 32.2468 40.2375 32.2306 40.2155L31.9592 39.8519L34.0288 38.1093H34.7316V44.2485H36.0985Z" fill="#BCCACE"/>
  <path d="M36.0985 53.8634V54.5057H32.376V53.8634H33.864V49.2496C33.864 49.111 33.8689 48.9709 33.8786 48.8293L32.6426 49.8635C32.6006 49.8981 32.5586 49.9202 32.5166 49.9296C32.4746 49.9359 32.4358 49.9359 32.4003 49.9296C32.3647 49.9233 32.3308 49.9107 32.2985 49.8918C32.2694 49.8729 32.2468 49.8525 32.2306 49.8304L31.9592 49.4668L34.0288 47.7242H34.7316V53.8634H36.0985Z" fill="#BCCACE"/>
  <path d="M37 60.8007C37 61.3926 36.9338 61.9058 36.8013 62.3402C36.672 62.7716 36.4943 63.1289 36.2681 63.4122C36.0419 63.6956 35.7737 63.9065 35.4635 64.045C35.1565 64.1836 34.827 64.2528 34.4747 64.2528C34.1193 64.2528 33.7881 64.1836 33.4811 64.045C33.1774 63.9065 32.9124 63.6956 32.6862 63.4122C32.46 63.1289 32.2823 62.7716 32.1531 62.3402C32.0238 61.9058 31.9592 61.3926 31.9592 60.8007C31.9592 60.2088 32.0238 59.6957 32.1531 59.2612C32.2823 58.8267 32.46 58.4678 32.6862 58.1845C32.9124 57.898 33.1774 57.6855 33.4811 57.5469C33.7881 57.4084 34.1193 57.3391 34.4747 57.3391C34.827 57.3391 35.1565 57.4084 35.4635 57.5469C35.7737 57.6855 36.0419 57.898 36.2681 58.1845C36.4943 58.4678 36.672 58.8267 36.8013 59.2612C36.9338 59.6957 37 60.2088 37 60.8007ZM36.1033 60.8007C36.1033 60.2844 36.0581 59.8515 35.9676 59.502C35.8804 59.1494 35.7608 58.8661 35.6089 58.652C35.4603 58.4379 35.2874 58.2852 35.0903 58.1939C34.8932 58.0995 34.688 58.0522 34.4747 58.0522C34.2615 58.0522 34.0563 58.0995 33.8592 58.1939C33.6621 58.2852 33.4892 58.4379 33.3406 58.652C33.1919 58.8661 33.0724 59.1494 32.9819 59.502C32.8946 59.8515 32.851 60.2844 32.851 60.8007C32.851 61.317 32.8946 61.7499 32.9819 62.0994C33.0724 62.4489 33.1919 62.7306 33.3406 62.9447C33.4892 63.1588 33.6621 63.3131 33.8592 63.4075C34.0563 63.4988 34.2615 63.5445 34.4747 63.5445C34.688 63.5445 34.8932 63.4988 35.0903 63.4075C35.2874 63.3131 35.4603 63.1588 35.6089 62.9447C35.7608 62.7306 35.8804 62.4489 35.9676 62.0994C36.0581 61.7499 36.1033 61.317 36.1033 60.8007Z" fill="#BCCACE"/>
  <path d="M37 70.5479C37 71.1398 36.9338 71.6529 36.8013 72.0874C36.672 72.5187 36.4943 72.8761 36.2681 73.1594C36.0419 73.4427 35.7737 73.6537 35.4635 73.7922C35.1565 73.9307 34.827 74 34.4747 74C34.1193 74 33.7881 73.9307 33.4811 73.7922C33.1774 73.6537 32.9124 73.4427 32.6862 73.1594C32.46 72.8761 32.2823 72.5187 32.1531 72.0874C32.0238 71.6529 31.9592 71.1398 31.9592 70.5479C31.9592 69.956 32.0238 69.4428 32.1531 69.0084C32.2823 68.5739 32.46 68.215 32.6862 67.9316C32.9124 67.6451 33.1774 67.4326 33.4811 67.2941C33.7881 67.1556 34.1193 67.0863 34.4747 67.0863C34.827 67.0863 35.1565 67.1556 35.4635 67.2941C35.7737 67.4326 36.0419 67.6451 36.2681 67.9316C36.4943 68.215 36.672 68.5739 36.8013 69.0084C36.9338 69.4428 37 69.956 37 70.5479ZM36.1033 70.5479C36.1033 70.0316 36.0581 69.5987 35.9676 69.2492C35.8804 68.8966 35.7608 68.6132 35.6089 68.3992C35.4603 68.1851 35.2874 68.0324 35.0903 67.9411C34.8932 67.8466 34.688 67.7994 34.4747 67.7994C34.2615 67.7994 34.0563 67.8466 33.8592 67.9411C33.6621 68.0324 33.4892 68.1851 33.3406 68.3992C33.1919 68.6132 33.0724 68.8966 32.9819 69.2492C32.8946 69.5987 32.851 70.0316 32.851 70.5479C32.851 71.0642 32.8946 71.4971 32.9819 71.8466C33.0724 72.196 33.1919 72.4778 33.3406 72.6919C33.4892 72.906 33.6621 73.0602 33.8592 73.1547C34.0563 73.246 34.2615 73.2916 34.4747 73.2916C34.688 73.2916 34.8932 73.246 35.0903 73.1547C35.2874 73.0602 35.4603 72.906 35.6089 72.6919C35.7608 72.4778 35.8804 72.196 35.9676 71.8466C36.0581 71.4971 36.1033 71.0642 36.1033 70.5479Z" fill="#BCCACE"/>
  <path d="M22.7826 6H12C7.58172 6 4 9.58172 4 14V23.9444M4 56.5278V66C4 70.4183 7.58172 74 12 74H20.9938M57.6646 6H68C72.4183 6 76 9.58172 76 14V23.9444M76 56.5278V66C76 70.4183 72.4183 74 68 74H57.6646" stroke="#204D5D" stroke-width="1.5" stroke-linecap="round" stroke-linejoin="round"/>
  <path d="M40 8V11.3237M40 74V71.1511M40 11.3237C46.5227 10.6906 59.5682 14.6475 59.5682 35.5396V38.1511M40 11.3237V29.3669M40 71.1511C43.3409 71.6259 46.2045 68.777 50.9773 64.9784C54.7955 61.9396 56.0682 57.0647 56.2273 55.0072C60.0455 56.9065 61 44.5612 61 42.6619C61 41.1424 60.0455 40.7626 59.5682 40.7626V38.1511M40 71.1511V64.5036M40 29.3669C42.0806 31.1079 47.5707 34.495 52.8864 34.1151C58.202 33.7353 59.5558 36.6475 59.5682 38.1511M40 29.3669V53.1079M43.8182 40.2878C44.7727 39.4964 47.4455 37.9137 50.5 37.9137C53.5545 37.9137 55.2727 40.1295 55.75 41.2374M43.8182 44.5612C44.2275 43.9504 45.2159 42.9468 46.6818 42.3083M53.8409 43.637C53.0083 42.9039 52.0322 42.2606 50.9773 41.936M46.6818 42.3083C47.4951 41.9541 48.4555 41.7122 49.5455 41.7122C50.0343 41.7122 50.5134 41.7933 50.9773 41.936M46.6818 42.3083C46.5227 43.3758 46.6818 45.5108 48.5909 45.5108C50.9773 45.5108 50.9773 42.6346 50.9773 41.936M42.8636 51.6835C42.2273 52.1583 40.7636 53.1079 40 53.1079M40 53.1079V57.8561M40 57.8561C41.1136 57.8561 43.6273 58.3309 44.7727 60.2302M40 57.8561V60.2302M44.7727 60.2302H40M44.7727 60.2302V60.2302C45.2005 60.2302 45.4628 60.6855 45.2167 61.0353C44.1726 62.5198 42.2303 64.5036 40 64.5036M40 60.2302V64.5036" stroke="#204D5D" stroke-width="1.5" stroke-linecap="round" stroke-linejoin="round"/>
  <path d="M40 8V11.3237V29.3669V53.1079V57.8561V60.2302V64.5036V71.1511V74" stroke="#C9F0F8" stroke-width="1.5" stroke-linecap="round" stroke-linejoin="round"/>
</svg>