<svg width="328" height="58" viewBox="0 0 328 58" fill="none" xmlns="http://www.w3.org/2000/svg">
<rect y="1.73291" width="54.5343" height="54.5343" rx="17.451" fill="#C6E1E7"/>
<path d="M18.5616 33.3638L16.7006 30.2873C13.617 25.19 15.2986 18.5285 20.4563 15.4084C25.6141 12.2883 32.295 13.8911 35.3785 18.9884C37.2548 22.0901 37.3572 26.116 35.2357 29.4778M18.5616 33.3638L23.6889 30.2621M18.5616 33.3638L24.8016 43.679M23.6889 30.2621L29.5969 26.6881C30.9861 25.8478 31.431 24.0404 30.5907 22.6512L30.2512 22.0901C28.8606 19.7913 25.8477 19.0685 23.5216 20.4756C21.1956 21.8827 20.4372 24.8869 21.8278 27.1856L23.6889 30.2621ZM35.2357 29.4778C34.3532 30.8762 33.138 32.0985 31.6227 33.0152L27.411 35.563L29.6618 39.2837C29.8327 39.5662 30.1096 39.7686 30.4308 39.8456L35.4711 41.0549C36.1291 41.2127 36.7917 40.8119 36.9574 40.1557L38.226 35.1301C38.3068 34.8099 38.2561 34.4707 38.0852 34.1881L35.2357 29.4778Z" stroke="#003446" stroke-width="3.02969" stroke-linecap="round" stroke-linejoin="round"/>
<path d="M73.863 16.147H80.1765V42.2975H73.863V16.147ZM77.8229 21.3397V16.147H82.9409C85.1575 16.147 87.0129 16.4956 88.5073 17.193C90.0265 17.8654 91.1721 18.8367 91.9442 20.1069C92.7162 21.3771 93.1023 22.9087 93.1023 24.7019C93.1023 26.4453 92.7162 27.9645 91.9442 29.2596C91.1721 30.5297 90.0265 31.5135 88.5073 32.2108C87.0129 32.8833 85.1575 33.2195 82.9409 33.2195H77.8229V28.0268H82.9409C84.2111 28.0268 85.2073 27.7404 85.9296 27.1675C86.6518 26.5947 87.0129 25.7728 87.0129 24.7019C87.0129 23.6061 86.6518 22.7718 85.9296 22.1989C85.2073 21.6261 84.2111 21.3397 82.9409 21.3397H77.8229Z" fill="white"/>
<path d="M108.905 33.7052C108.905 31.8871 109.328 30.3056 110.175 28.9607C111.022 27.6158 112.192 26.5698 113.686 25.8227C115.181 25.0755 116.862 24.7019 118.73 24.7019C120.598 24.7019 122.266 25.0755 123.736 25.8227C125.23 26.5698 126.401 27.6158 127.247 28.9607C128.119 30.3056 128.555 31.8871 128.555 33.7052C128.555 35.4983 128.119 37.0674 127.247 38.4123C126.401 39.7571 125.23 40.8032 123.736 41.5503C122.266 42.2975 120.598 42.671 118.73 42.671C116.862 42.671 115.181 42.2975 113.686 41.5503C112.192 40.8032 111.022 39.7571 110.175 38.4123C109.328 37.0674 108.905 35.4983 108.905 33.7052ZM114.695 33.7052C114.695 34.6018 114.882 35.3738 115.255 36.0213C115.629 36.644 116.115 37.1296 116.712 37.4783C117.31 37.827 117.983 38.0013 118.73 38.0013C119.452 38.0013 120.112 37.827 120.71 37.4783C121.332 37.1296 121.818 36.644 122.167 36.0213C122.54 35.3738 122.727 34.6018 122.727 33.7052C122.727 32.8086 122.54 32.0365 122.167 31.389C121.818 30.7414 121.332 30.2433 120.71 29.8947C120.112 29.546 119.452 29.3717 118.73 29.3717C117.983 29.3717 117.31 29.546 116.712 29.8947C116.115 30.2433 115.629 30.7414 115.255 31.389C114.882 32.0365 114.695 32.8086 114.695 33.7052Z" fill="white"/>
<path d="M136.319 33.7052C136.319 34.6267 136.519 35.4236 136.917 36.0961C137.316 36.7436 137.864 37.2542 138.561 37.6277C139.283 38.0013 140.055 38.1881 140.877 38.1881C141.574 38.1881 142.234 38.0885 142.857 37.8892C143.505 37.6651 144.09 37.3662 144.613 36.9927C145.161 36.6191 145.609 36.1583 145.958 35.6104V41.102C145.36 41.5752 144.613 41.9612 143.716 42.2601C142.82 42.5341 141.724 42.671 140.429 42.671C138.536 42.671 136.83 42.2975 135.311 41.5503C133.816 40.8032 132.633 39.7571 131.762 38.4123C130.915 37.0674 130.492 35.4983 130.492 33.7052C130.492 31.8871 130.915 30.3181 131.762 28.9981C132.633 27.6532 133.816 26.6072 135.311 25.86C136.83 25.1129 138.536 24.7393 140.429 24.7393C141.724 24.7393 142.82 24.8887 143.716 25.1876C144.613 25.4615 145.36 25.8102 145.958 26.2336V31.7626C145.609 31.2146 145.148 30.7539 144.576 30.3803C144.028 30.0067 143.43 29.7203 142.782 29.5211C142.135 29.3218 141.5 29.2222 140.877 29.2222C140.055 29.2222 139.283 29.4215 138.561 29.8199C137.864 30.2184 137.316 30.7539 136.917 31.4263C136.519 32.0988 136.319 32.8584 136.319 33.7052Z" fill="white"/>
<path d="M147.644 25.1129H159.15V29.7826H147.644V25.1129ZM150.67 19.1356H156.087V42.2975H150.67V19.1356Z" fill="white"/>
<path d="M160.172 33.7052C160.172 31.8871 160.596 30.3056 161.443 28.9607C162.289 27.6158 163.46 26.5698 164.954 25.8227C166.449 25.0755 168.13 24.7019 169.998 24.7019C171.865 24.7019 173.534 25.0755 175.004 25.8227C176.498 26.5698 177.668 27.6158 178.515 28.9607C179.387 30.3056 179.823 31.8871 179.823 33.7052C179.823 35.4983 179.387 37.0674 178.515 38.4123C177.668 39.7571 176.498 40.8032 175.004 41.5503C173.534 42.2975 171.865 42.671 169.998 42.671C168.13 42.671 166.449 42.2975 164.954 41.5503C163.46 40.8032 162.289 39.7571 161.443 38.4123C160.596 37.0674 160.172 35.4983 160.172 33.7052ZM165.963 33.7052C165.963 34.6018 166.15 35.3738 166.523 36.0213C166.897 36.644 167.383 37.1296 167.98 37.4783C168.578 37.827 169.25 38.0013 169.998 38.0013C170.72 38.0013 171.38 37.827 171.978 37.4783C172.6 37.1296 173.086 36.644 173.434 36.0213C173.808 35.3738 173.995 34.6018 173.995 33.7052C173.995 32.8086 173.808 32.0365 173.434 31.389C173.086 30.7414 172.6 30.2433 171.978 29.8947C171.38 29.546 170.72 29.3717 169.998 29.3717C169.25 29.3717 168.578 29.546 167.98 29.8947C167.383 30.2433 166.897 30.7414 166.523 31.389C166.15 32.0365 165.963 32.8086 165.963 33.7052Z" fill="white"/>
<path d="M188.409 25.1129V42.2975H182.843V25.1129H188.409ZM193.378 30.9407C193.079 30.6418 192.755 30.4052 192.406 30.2309C192.083 30.0565 191.672 29.9694 191.174 29.9694C190.626 29.9694 190.14 30.1188 189.717 30.4177C189.293 30.7165 188.97 31.1524 188.745 31.7252C188.521 32.298 188.409 32.9954 188.409 33.8172L187.064 31.8373C187.064 30.4675 187.326 29.2471 187.849 28.1762C188.397 27.1053 189.107 26.2585 189.978 25.6359C190.85 25.0132 191.759 24.7019 192.705 24.7019C193.328 24.7019 193.926 24.8264 194.498 25.0755C195.071 25.3246 195.507 25.6732 195.806 26.1215L193.378 30.9407Z" fill="white"/>
<path d="M98.9055 25.7168L103.353 42.3158L97.9765 43.7565L93.5288 27.1574L98.9055 25.7168ZM105.213 30.06C104.847 29.8487 104.473 29.704 104.091 29.6258C103.733 29.5412 103.314 29.5634 102.833 29.6923C102.303 29.8341 101.873 30.1041 101.541 30.5024C101.21 30.9007 101.01 31.4055 100.942 32.0168C100.873 32.6281 100.946 33.3307 101.158 34.1245L99.3468 32.5601C98.9923 31.237 98.9291 29.9906 99.1571 28.8208C99.4091 27.6445 99.8756 26.6429 100.556 25.8159C101.237 24.9888 102.035 24.4528 102.949 24.2079C103.55 24.0468 104.16 24.0123 104.778 24.1046C105.395 24.197 105.907 24.4209 106.311 24.7766L105.213 30.06Z" fill="white"/>
<mask id="path-5-outside-1_1_1199" maskUnits="userSpaceOnUse" x="202.09" y="12.2437" width="108" height="33" fill="black">
<rect fill="white" x="202.09" y="12.2437" width="108" height="33"/>
<path d="M204.09 17.2323H210.403V43.3828H204.09V17.2323ZM208.05 22.425V17.2323H213.168C215.384 17.2323 217.24 17.581 218.734 18.2783C220.253 18.9507 221.399 19.922 222.171 21.1922C222.943 22.4624 223.329 23.9941 223.329 25.7872C223.329 27.5306 222.943 29.0498 222.171 30.3449C221.399 31.6151 220.253 32.5988 218.734 33.2962C217.24 33.9686 215.384 34.3048 213.168 34.3048H208.05V29.1121H213.168C214.438 29.1121 215.434 28.8257 216.156 28.2528C216.878 27.68 217.24 26.8582 217.24 25.7872C217.24 24.6914 216.878 23.8571 216.156 23.2843C215.434 22.7114 214.438 22.425 213.168 22.425H208.05Z"/>
<path d="M230.045 38.0032C230.045 38.4515 230.157 38.8376 230.381 39.1613C230.605 39.4602 230.904 39.6968 231.278 39.8711C231.651 40.0206 232.062 40.0953 232.511 40.0953C233.158 40.0953 233.756 39.9583 234.304 39.6843C234.852 39.4104 235.3 38.9995 235.649 38.4515C235.997 37.9036 236.172 37.2312 236.172 36.4342L236.769 38.6757C236.769 39.7715 236.47 40.7055 235.873 41.4775C235.275 42.2247 234.503 42.7975 233.557 43.196C232.61 43.5696 231.589 43.7564 230.493 43.7564C229.397 43.7564 228.376 43.5571 227.43 43.1586C226.508 42.7352 225.761 42.1126 225.188 41.2907C224.64 40.4689 224.367 39.4727 224.367 38.3021C224.367 36.6584 224.952 35.3633 226.122 34.4169C227.293 33.4456 228.949 32.9599 231.091 32.9599C232.137 32.9599 233.071 33.0596 233.893 33.2588C234.74 33.458 235.462 33.7071 236.06 34.006C236.657 34.3048 237.106 34.6161 237.404 34.9399V37.4429C236.807 36.9946 236.109 36.6584 235.312 36.4342C234.54 36.1852 233.718 36.0606 232.847 36.0606C232.174 36.0606 231.639 36.1354 231.24 36.2848C230.842 36.4342 230.543 36.6584 230.344 36.9572C230.145 37.2312 230.045 37.5799 230.045 38.0032ZM227.542 31.4656L225.637 27.6925C226.608 27.2193 227.779 26.771 229.148 26.3476C230.518 25.9242 232.012 25.7125 233.631 25.7125C235.15 25.7125 236.508 25.9367 237.703 26.385C238.899 26.8083 239.845 27.431 240.542 28.2528C241.24 29.0747 241.588 30.0834 241.588 31.2788V43.3828H236.172V32.549C236.172 32.1256 236.097 31.7645 235.947 31.4656C235.823 31.1419 235.624 30.8679 235.35 30.6437C235.076 30.4196 234.727 30.2577 234.304 30.1581C233.905 30.0585 233.444 30.0087 232.921 30.0087C232.149 30.0087 231.39 30.0958 230.643 30.2702C229.92 30.4445 229.285 30.6562 228.737 30.9053C228.189 31.1294 227.791 31.3162 227.542 31.4656Z"/>
<path d="M251.379 26.1982V43.3828H245.812V26.1982H251.379ZM256.347 32.026C256.048 31.7271 255.725 31.4905 255.376 31.3162C255.052 31.1419 254.641 31.0547 254.143 31.0547C253.595 31.0547 253.109 31.2041 252.686 31.503C252.263 31.8018 251.939 32.2377 251.715 32.8105C251.491 33.3833 251.379 34.0807 251.379 34.9025L250.034 32.9226C250.034 31.5528 250.295 30.3324 250.818 29.2615C251.366 28.1906 252.076 27.3438 252.948 26.7212C253.819 26.0985 254.728 25.7872 255.675 25.7872C256.297 25.7872 256.895 25.9118 257.468 26.1608C258.041 26.4099 258.477 26.7585 258.775 27.2068L256.347 32.026Z"/>
<path d="M266.85 14.2437V43.3828H261.171V14.2437H266.85ZM272.341 32.9226C272.341 31.9015 272.154 31.1169 271.781 30.569C271.407 30.0211 270.76 29.7472 269.838 29.7472C269.241 29.7472 268.718 29.8841 268.269 30.1581C267.821 30.4072 267.472 30.7683 267.223 31.2415C266.974 31.6898 266.85 32.2501 266.85 32.9226H265.878C265.878 31.5528 266.103 30.32 266.551 29.2242C266.999 28.1034 267.672 27.2193 268.568 26.5717C269.49 25.8993 270.66 25.5631 272.08 25.5631C273.499 25.5631 274.633 25.8121 275.479 26.3102C276.351 26.8083 276.986 27.543 277.385 28.5144C277.783 29.4857 277.982 30.6811 277.982 32.1007V43.3828H272.341V32.9226Z"/>
<path d="M286.811 38.0032C286.811 38.4515 286.923 38.8376 287.148 39.1613C287.372 39.4602 287.671 39.6968 288.044 39.8711C288.418 40.0206 288.829 40.0953 289.277 40.0953C289.924 40.0953 290.522 39.9583 291.07 39.6843C291.618 39.4104 292.066 38.9995 292.415 38.4515C292.764 37.9036 292.938 37.2312 292.938 36.4342L293.536 38.6757C293.536 39.7715 293.237 40.7055 292.639 41.4775C292.041 42.2247 291.269 42.7975 290.323 43.196C289.377 43.5696 288.355 43.7564 287.26 43.7564C286.164 43.7564 285.143 43.5571 284.196 43.1586C283.275 42.7352 282.528 42.1126 281.955 41.2907C281.407 40.4689 281.133 39.4727 281.133 38.3021C281.133 36.6584 281.718 35.3633 282.889 34.4169C284.059 33.4456 285.715 32.9599 287.857 32.9599C288.903 32.9599 289.837 33.0596 290.659 33.2588C291.506 33.458 292.228 33.7071 292.826 34.006C293.424 34.3048 293.872 34.6161 294.171 34.9399V37.4429C293.573 36.9946 292.876 36.6584 292.079 36.4342C291.307 36.1852 290.485 36.0606 289.613 36.0606C288.941 36.0606 288.405 36.1354 288.007 36.2848C287.608 36.4342 287.309 36.6584 287.11 36.9572C286.911 37.2312 286.811 37.5799 286.811 38.0032ZM284.308 31.4656L282.403 27.6925C283.374 27.2193 284.545 26.771 285.915 26.3476C287.285 25.9242 288.779 25.7125 290.398 25.7125C291.917 25.7125 293.274 25.9367 294.47 26.385C295.665 26.8083 296.612 27.431 297.309 28.2528C298.006 29.0747 298.355 30.0834 298.355 31.2788V43.3828H292.938V32.549C292.938 32.1256 292.863 31.7645 292.714 31.4656C292.589 31.1419 292.39 30.8679 292.116 30.6437C291.842 30.4196 291.494 30.2577 291.07 30.1581C290.672 30.0585 290.211 30.0087 289.688 30.0087C288.916 30.0087 288.156 30.0958 287.409 30.2702C286.687 30.4445 286.052 30.6562 285.504 30.9053C284.956 31.1294 284.557 31.3162 284.308 31.4656Z"/>
<path d="M302.803 26.1982H308.257V43.3828H302.803V26.1982Z"/>
</mask>
<path d="M204.09 17.2323H210.403V43.3828H204.09V17.2323ZM208.05 22.425V17.2323H213.168C215.384 17.2323 217.24 17.581 218.734 18.2783C220.253 18.9507 221.399 19.922 222.171 21.1922C222.943 22.4624 223.329 23.9941 223.329 25.7872C223.329 27.5306 222.943 29.0498 222.171 30.3449C221.399 31.6151 220.253 32.5988 218.734 33.2962C217.24 33.9686 215.384 34.3048 213.168 34.3048H208.05V29.1121H213.168C214.438 29.1121 215.434 28.8257 216.156 28.2528C216.878 27.68 217.24 26.8582 217.24 25.7872C217.24 24.6914 216.878 23.8571 216.156 23.2843C215.434 22.7114 214.438 22.425 213.168 22.425H208.05Z" stroke="white" stroke-width="2.01979" mask="url(#path-5-outside-1_1_1199)"/>
<path d="M230.045 38.0032C230.045 38.4515 230.157 38.8376 230.381 39.1613C230.605 39.4602 230.904 39.6968 231.278 39.8711C231.651 40.0206 232.062 40.0953 232.511 40.0953C233.158 40.0953 233.756 39.9583 234.304 39.6843C234.852 39.4104 235.3 38.9995 235.649 38.4515C235.997 37.9036 236.172 37.2312 236.172 36.4342L236.769 38.6757C236.769 39.7715 236.47 40.7055 235.873 41.4775C235.275 42.2247 234.503 42.7975 233.557 43.196C232.61 43.5696 231.589 43.7564 230.493 43.7564C229.397 43.7564 228.376 43.5571 227.43 43.1586C226.508 42.7352 225.761 42.1126 225.188 41.2907C224.64 40.4689 224.367 39.4727 224.367 38.3021C224.367 36.6584 224.952 35.3633 226.122 34.4169C227.293 33.4456 228.949 32.9599 231.091 32.9599C232.137 32.9599 233.071 33.0596 233.893 33.2588C234.74 33.458 235.462 33.7071 236.06 34.006C236.657 34.3048 237.106 34.6161 237.404 34.9399V37.4429C236.807 36.9946 236.109 36.6584 235.312 36.4342C234.54 36.1852 233.718 36.0606 232.847 36.0606C232.174 36.0606 231.639 36.1354 231.24 36.2848C230.842 36.4342 230.543 36.6584 230.344 36.9572C230.145 37.2312 230.045 37.5799 230.045 38.0032ZM227.542 31.4656L225.637 27.6925C226.608 27.2193 227.779 26.771 229.148 26.3476C230.518 25.9242 232.012 25.7125 233.631 25.7125C235.15 25.7125 236.508 25.9367 237.703 26.385C238.899 26.8083 239.845 27.431 240.542 28.2528C241.24 29.0747 241.588 30.0834 241.588 31.2788V43.3828H236.172V32.549C236.172 32.1256 236.097 31.7645 235.947 31.4656C235.823 31.1419 235.624 30.8679 235.35 30.6437C235.076 30.4196 234.727 30.2577 234.304 30.1581C233.905 30.0585 233.444 30.0087 232.921 30.0087C232.149 30.0087 231.39 30.0958 230.643 30.2702C229.92 30.4445 229.285 30.6562 228.737 30.9053C228.189 31.1294 227.791 31.3162 227.542 31.4656Z" stroke="white" stroke-width="2.01979" mask="url(#path-5-outside-1_1_1199)"/>
<path d="M251.379 26.1982V43.3828H245.812V26.1982H251.379ZM256.347 32.026C256.048 31.7271 255.725 31.4905 255.376 31.3162C255.052 31.1419 254.641 31.0547 254.143 31.0547C253.595 31.0547 253.109 31.2041 252.686 31.503C252.263 31.8018 251.939 32.2377 251.715 32.8105C251.491 33.3833 251.379 34.0807 251.379 34.9025L250.034 32.9226C250.034 31.5528 250.295 30.3324 250.818 29.2615C251.366 28.1906 252.076 27.3438 252.948 26.7212C253.819 26.0985 254.728 25.7872 255.675 25.7872C256.297 25.7872 256.895 25.9118 257.468 26.1608C258.041 26.4099 258.477 26.7585 258.775 27.2068L256.347 32.026Z" stroke="white" stroke-width="2.01979" mask="url(#path-5-outside-1_1_1199)"/>
<path d="M266.85 14.2437V43.3828H261.171V14.2437H266.85ZM272.341 32.9226C272.341 31.9015 272.154 31.1169 271.781 30.569C271.407 30.0211 270.76 29.7472 269.838 29.7472C269.241 29.7472 268.718 29.8841 268.269 30.1581C267.821 30.4072 267.472 30.7683 267.223 31.2415C266.974 31.6898 266.85 32.2501 266.85 32.9226H265.878C265.878 31.5528 266.103 30.32 266.551 29.2242C266.999 28.1034 267.672 27.2193 268.568 26.5717C269.49 25.8993 270.66 25.5631 272.08 25.5631C273.499 25.5631 274.633 25.8121 275.479 26.3102C276.351 26.8083 276.986 27.543 277.385 28.5144C277.783 29.4857 277.982 30.6811 277.982 32.1007V43.3828H272.341V32.9226Z" stroke="white" stroke-width="2.01979" mask="url(#path-5-outside-1_1_1199)"/>
<path d="M286.811 38.0032C286.811 38.4515 286.923 38.8376 287.148 39.1613C287.372 39.4602 287.671 39.6968 288.044 39.8711C288.418 40.0206 288.829 40.0953 289.277 40.0953C289.924 40.0953 290.522 39.9583 291.07 39.6843C291.618 39.4104 292.066 38.9995 292.415 38.4515C292.764 37.9036 292.938 37.2312 292.938 36.4342L293.536 38.6757C293.536 39.7715 293.237 40.7055 292.639 41.4775C292.041 42.2247 291.269 42.7975 290.323 43.196C289.377 43.5696 288.355 43.7564 287.26 43.7564C286.164 43.7564 285.143 43.5571 284.196 43.1586C283.275 42.7352 282.528 42.1126 281.955 41.2907C281.407 40.4689 281.133 39.4727 281.133 38.3021C281.133 36.6584 281.718 35.3633 282.889 34.4169C284.059 33.4456 285.715 32.9599 287.857 32.9599C288.903 32.9599 289.837 33.0596 290.659 33.2588C291.506 33.458 292.228 33.7071 292.826 34.006C293.424 34.3048 293.872 34.6161 294.171 34.9399V37.4429C293.573 36.9946 292.876 36.6584 292.079 36.4342C291.307 36.1852 290.485 36.0606 289.613 36.0606C288.941 36.0606 288.405 36.1354 288.007 36.2848C287.608 36.4342 287.309 36.6584 287.11 36.9572C286.911 37.2312 286.811 37.5799 286.811 38.0032ZM284.308 31.4656L282.403 27.6925C283.374 27.2193 284.545 26.771 285.915 26.3476C287.285 25.9242 288.779 25.7125 290.398 25.7125C291.917 25.7125 293.274 25.9367 294.47 26.385C295.665 26.8083 296.612 27.431 297.309 28.2528C298.006 29.0747 298.355 30.0834 298.355 31.2788V43.3828H292.938V32.549C292.938 32.1256 292.863 31.7645 292.714 31.4656C292.589 31.1419 292.39 30.8679 292.116 30.6437C291.842 30.4196 291.494 30.2577 291.07 30.1581C290.672 30.0585 290.211 30.0087 289.688 30.0087C288.916 30.0087 288.156 30.0958 287.409 30.2702C286.687 30.4445 286.052 30.6562 285.504 30.9053C284.956 31.1294 284.557 31.3162 284.308 31.4656Z" stroke="white" stroke-width="2.01979" mask="url(#path-5-outside-1_1_1199)"/>
<path d="M302.803 26.1982H308.257V43.3828H302.803V26.1982Z" stroke="white" stroke-width="2.01979" mask="url(#path-5-outside-1_1_1199)"/>
<rect width="17.948" height="6.7305" transform="translate(290.378 14.2437)" fill="#F6F5B4"/>
<path d="M322.42 35.1105C322.787 35.1105 323.164 35.1589 323.551 35.2558C323.938 35.3526 324.331 35.508 324.728 35.7221V36.6853C324.351 36.4865 323.977 36.3387 323.605 36.2419C323.232 36.14 322.876 36.089 322.534 36.089C322.249 36.089 321.984 36.1298 321.739 36.2113C321.495 36.2929 321.281 36.4177 321.097 36.5859C320.919 36.749 320.776 36.9554 320.669 37.2051C320.567 37.4497 320.516 37.7376 320.516 38.0689C320.516 38.4002 320.567 38.6906 320.669 38.9404C320.776 39.185 320.919 39.3914 321.097 39.5595C321.281 39.7226 321.495 39.8449 321.739 39.9265C321.984 40.008 322.249 40.0488 322.534 40.0488C322.876 40.0488 323.232 40.0004 323.605 39.9035C323.977 39.8016 324.351 39.6513 324.728 39.4525V40.4157C324.331 40.6298 323.938 40.7852 323.551 40.882C323.164 40.9788 322.787 41.0273 322.42 41.0273C321.961 41.0273 321.533 40.9508 321.135 40.7979C320.738 40.6399 320.394 40.4285 320.103 40.1634C319.813 39.8933 319.584 39.5799 319.415 39.2232C319.247 38.8614 319.163 38.4766 319.163 38.0689C319.163 37.6612 319.247 37.279 319.415 36.9222C319.584 36.5604 319.813 36.247 320.103 35.982C320.394 35.7119 320.738 35.5004 321.135 35.3475C321.533 35.1895 321.961 35.1105 322.42 35.1105ZM322.305 43.7563C321.821 43.7563 321.344 43.6977 320.875 43.5805C320.407 43.4582 319.961 43.2849 319.538 43.0607C319.115 42.8313 318.725 42.5536 318.368 42.2274C318.011 41.8962 317.703 41.5216 317.443 41.1037C317.183 40.6807 316.979 40.217 316.832 39.7124C316.684 39.2028 316.61 38.6575 316.61 38.0765C316.61 37.4956 316.686 36.9528 316.839 36.4483C316.992 35.9387 317.204 35.4724 317.474 35.0494C317.744 34.6264 318.06 34.2493 318.422 33.918C318.789 33.5817 319.181 33.2988 319.599 33.0695C320.022 32.8402 320.463 32.6669 320.921 32.5497C321.385 32.4274 321.846 32.3662 322.305 32.3662C322.769 32.3662 323.23 32.4274 323.689 32.5497C324.152 32.672 324.596 32.8478 325.019 33.0771C325.442 33.3065 325.834 33.5893 326.196 33.9257C326.558 34.2569 326.871 34.634 327.136 35.057C327.406 35.48 327.618 35.9463 327.771 36.4559C327.924 36.9605 328 37.5007 328 38.0765C328 38.6422 327.929 39.1773 327.786 39.6819C327.643 40.1813 327.442 40.6425 327.182 41.0655C326.927 41.4834 326.621 41.8605 326.265 42.1968C325.913 42.5281 325.526 42.8109 325.103 43.0454C324.685 43.2747 324.236 43.4505 323.757 43.5728C323.283 43.6951 322.799 43.7563 322.305 43.7563ZM326.869 38.0842C326.869 37.5899 326.805 37.1312 326.678 36.7082C326.555 36.2801 326.385 35.8903 326.165 35.5386C325.946 35.1819 325.689 34.8659 325.393 34.5907C325.098 34.3155 324.782 34.0862 324.445 33.9027C324.109 33.7142 323.757 33.5715 323.39 33.4746C323.024 33.3727 322.662 33.3218 322.305 33.3218C321.938 33.3218 321.571 33.3727 321.204 33.4746C320.837 33.5715 320.483 33.7142 320.142 33.9027C319.805 34.0913 319.489 34.3232 319.194 34.5984C318.903 34.8736 318.651 35.1895 318.437 35.5463C318.223 35.8979 318.052 36.2878 317.925 36.7158C317.802 37.1388 317.741 37.5949 317.741 38.0842C317.741 38.7365 317.851 39.3506 318.07 39.9265C318.289 40.4973 318.597 40.9967 318.995 41.4248C319.398 41.8529 319.879 42.1918 320.44 42.4415C321 42.6861 321.622 42.8084 322.305 42.8084C322.988 42.8084 323.61 42.6861 324.17 42.4415C324.731 42.1918 325.21 41.8529 325.607 41.4248C326.01 40.9967 326.321 40.4973 326.54 39.9265C326.759 39.3506 326.869 38.7365 326.869 38.0842Z" fill="white"/>
</svg>
