<svg xmlns="http://www.w3.org/2000/svg" width="82" height="80" viewBox="0 0 82 80" fill="none">
  <path d="M7.37681 32.4637V9.21728C7.37681 7.00814 9.16767 5.21729 11.3768 5.21729H71.2029C73.412 5.21729 75.2029 7.00815 75.2029 9.21729V41.1593M7.37681 32.4637H5C2.79086 32.4637 1 34.2545 1 36.4637V67.826V70.7825C1 72.9916 2.79086 74.7825 5 74.7825H27.7246C29.9338 74.7825 31.7246 72.9916 31.7246 70.7825V67.826V58.5506M7.37681 32.4637H27.7246C29.9338 32.4637 31.7246 34.2545 31.7246 36.4637V45.797M75.2029 41.1593H65.6087C64.5041 41.1593 63.6087 42.0547 63.6087 43.1593V45.797M75.2029 41.1593H79C80.1046 41.1593 81 42.0547 81 43.1593V67.826V72.7825C81 73.8871 80.1046 74.7825 79 74.7825H65.6087C64.5041 74.7825 63.6087 73.8871 63.6087 72.7825V67.826V58.5506M63.6087 45.797H31.7246M63.6087 45.797V58.5506M31.7246 45.797V58.5506M31.7246 58.5506H38.3623H43.2899M63.6087 58.5506H48.2174H43.2899M37.5217 11.5941H45.058M43.2899 58.5506V69.5M43.2899 69.5H50.5M43.2899 69.5H37.5217" stroke="#204D5D" stroke-width="1.5" stroke-linecap="round" stroke-linejoin="round"/>
  <path d="M70 60.2174L75.2174 55" stroke="#BCCACE" stroke-width="1.5" stroke-linecap="round" stroke-linejoin="round"/>
  <path d="M17.2319 58.5505L24.1884 51.594M8.53622 58.5505L15.4927 51.594" stroke="#BCCACE" stroke-width="1.5" stroke-linecap="round" stroke-linejoin="round"/>
  <path d="M46.2174 17.9709L32.8841 31.3043M39.8406 33.6231L54.3333 19.1304" stroke="#C9F0F8" stroke-width="1.5" stroke-linecap="round" stroke-linejoin="round"/>
  <path d="M45.131 52.1738C45.131 53.4545 44.0928 54.4927 42.8122 54.4927C41.5315 54.4927 40.4933 53.4545 40.4933 52.1738C40.4933 50.8932 41.5315 49.855 42.8122 49.855C44.0928 49.855 45.131 50.8932 45.131 52.1738Z" fill="#204D5D"/>
</svg>