<svg width="260" height="48" viewBox="0 0 260 48" fill="none" xmlns="http://www.w3.org/2000/svg">
<rect y="3.75" width="40.5" height="40.5" rx="12.96" fill="#003446"/>
<path d="M13.7848 27.2406L12.4027 24.9558C10.1127 21.1703 11.3615 16.2231 15.1919 13.906C19.0224 11.5889 23.9839 12.7792 26.2739 16.5647C27.6673 18.8681 27.7434 21.858 26.1679 24.3546M13.7848 27.2406L17.5926 24.9371M13.7848 27.2406L18.419 34.9012M17.5926 24.9371L21.9802 22.2829C23.0119 21.6588 23.3423 20.3165 22.7182 19.2849L22.4661 18.8681C21.4334 17.1609 19.1958 16.6241 17.4684 17.6691C15.7409 18.7141 15.1777 20.9452 16.2105 22.6524L17.5926 24.9371ZM26.1679 24.3546C25.5125 25.3932 24.61 26.3009 23.4847 26.9817L20.3568 28.8738L22.0284 31.637C22.1553 31.8468 22.361 31.9971 22.5995 32.0543L26.3426 32.9524C26.8314 33.0696 27.3235 32.7719 27.4465 32.2846L28.3886 28.5523C28.4486 28.3145 28.411 28.0626 28.284 27.8527L26.1679 24.3546Z" stroke="white" stroke-width="2.25" stroke-linecap="round" stroke-linejoin="round"/>
<path d="M54.8544 14.4546H59.5431V33.8753H54.8544V14.4546ZM57.7953 18.311V14.4546H61.5962C63.2423 14.4546 64.6203 14.7135 65.73 15.2314C66.8583 15.7308 67.7091 16.4521 68.2825 17.3954C68.8558 18.3387 69.1425 19.4762 69.1425 20.8079C69.1425 22.1026 68.8558 23.2309 68.2825 24.1927C67.7091 25.136 66.8583 25.8666 65.73 26.3844C64.6203 26.8838 63.2423 27.1335 61.5962 27.1335H57.7953V23.2771H61.5962C62.5395 23.2771 63.2793 23.0644 63.8157 22.639C64.3521 22.2136 64.6203 21.6033 64.6203 20.8079C64.6203 19.9941 64.3521 19.3745 63.8157 18.9491C63.2793 18.5237 62.5395 18.311 61.5962 18.311H57.7953Z" fill="#003446"/>
<path d="M80.8782 27.4942C80.8782 26.144 81.1926 24.9695 81.8215 23.9707C82.4503 22.972 83.3196 22.1951 84.4294 21.6402C85.5391 21.0854 86.7876 20.8079 88.1748 20.8079C89.562 20.8079 90.8012 21.0854 91.8925 21.6402C93.0022 22.1951 93.8715 22.972 94.5004 23.9707C95.1478 24.9695 95.4714 26.144 95.4714 27.4942C95.4714 28.8259 95.1478 29.9912 94.5004 30.9899C93.8715 31.9887 93.0022 32.7655 91.8925 33.3204C90.8012 33.8753 89.562 34.1527 88.1748 34.1527C86.7876 34.1527 85.5391 33.8753 84.4294 33.3204C83.3196 32.7655 82.4503 31.9887 81.8215 30.9899C81.1926 29.9912 80.8782 28.8259 80.8782 27.4942ZM85.1785 27.4942C85.1785 28.1601 85.3172 28.7334 85.5946 29.2143C85.8721 29.6767 86.2327 30.0374 86.6766 30.2963C87.1205 30.5553 87.6199 30.6847 88.1748 30.6847C88.7112 30.6847 89.2013 30.5553 89.6452 30.2963C90.1076 30.0374 90.4683 29.6767 90.7272 29.2143C91.0047 28.7334 91.1434 28.1601 91.1434 27.4942C91.1434 26.8284 91.0047 26.255 90.7272 25.7741C90.4683 25.2932 90.1076 24.9233 89.6452 24.6643C89.2013 24.4054 88.7112 24.2759 88.1748 24.2759C87.6199 24.2759 87.1205 24.4054 86.6766 24.6643C86.2327 24.9233 85.8721 25.2932 85.5946 25.7741C85.3172 26.255 85.1785 26.8284 85.1785 27.4942Z" fill="#003446"/>
<path d="M101.238 27.4942C101.238 28.1786 101.386 28.7704 101.682 29.2698C101.978 29.7507 102.385 30.1299 102.902 30.4073C103.439 30.6847 104.012 30.8235 104.623 30.8235C105.14 30.8235 105.631 30.7495 106.093 30.6015C106.574 30.4351 107.009 30.2131 107.397 29.9357C107.804 29.6582 108.137 29.3161 108.396 28.9091V32.9875C107.952 33.3389 107.397 33.6256 106.731 33.8475C106.065 34.051 105.251 34.1527 104.29 34.1527C102.884 34.1527 101.617 33.8753 100.489 33.3204C99.379 32.7655 98.5004 31.9887 97.8531 30.9899C97.2242 29.9912 96.9098 28.8259 96.9098 27.4942C96.9098 26.144 97.2242 24.9788 97.8531 23.9985C98.5004 22.9997 99.379 22.2229 100.489 21.668C101.617 21.1131 102.884 20.8357 104.29 20.8357C105.251 20.8357 106.065 20.9467 106.731 21.1686C107.397 21.3721 107.952 21.631 108.396 21.9454V26.0515C108.137 25.6446 107.795 25.3024 107.369 25.025C106.962 24.7476 106.518 24.5349 106.038 24.3869C105.557 24.2389 105.085 24.1649 104.623 24.1649C104.012 24.1649 103.439 24.3129 102.902 24.6088C102.385 24.9048 101.978 25.3024 101.682 25.8018C101.386 26.3012 101.238 26.8653 101.238 27.4942Z" fill="#003446"/>
<path d="M109.648 21.1131H118.193V24.5811H109.648V21.1131ZM111.895 16.6741H115.918V33.8753H111.895V16.6741Z" fill="#003446"/>
<path d="M118.952 27.4942C118.952 26.144 119.267 24.9695 119.896 23.9707C120.524 22.972 121.394 22.1951 122.503 21.6402C123.613 21.0854 124.862 20.8079 126.249 20.8079C127.636 20.8079 128.875 21.0854 129.967 21.6402C131.076 22.1951 131.946 22.972 132.575 23.9707C133.222 24.9695 133.546 26.144 133.546 27.4942C133.546 28.8259 133.222 29.9912 132.575 30.9899C131.946 31.9887 131.076 32.7655 129.967 33.3204C128.875 33.8753 127.636 34.1527 126.249 34.1527C124.862 34.1527 123.613 33.8753 122.503 33.3204C121.394 32.7655 120.524 31.9887 119.896 30.9899C119.267 29.9912 118.952 28.8259 118.952 27.4942ZM123.253 27.4942C123.253 28.1601 123.391 28.7334 123.669 29.2143C123.946 29.6767 124.307 30.0374 124.751 30.2963C125.195 30.5553 125.694 30.6847 126.249 30.6847C126.785 30.6847 127.275 30.5553 127.719 30.2963C128.182 30.0374 128.542 29.6767 128.801 29.2143C129.079 28.7334 129.218 28.1601 129.218 27.4942C129.218 26.8284 129.079 26.255 128.801 25.7741C128.542 25.2932 128.182 24.9233 127.719 24.6643C127.275 24.4054 126.785 24.2759 126.249 24.2759C125.694 24.2759 125.195 24.4054 124.751 24.6643C124.307 24.9233 123.946 25.2932 123.669 25.7741C123.391 26.255 123.253 26.8284 123.253 27.4942Z" fill="#003446"/>
<path d="M139.922 21.1131V33.8753H135.788V21.1131H139.922ZM143.612 25.4412C143.39 25.2192 143.15 25.0435 142.891 24.914C142.65 24.7846 142.345 24.7198 141.975 24.7198C141.568 24.7198 141.208 24.8308 140.893 25.0527C140.579 25.2747 140.338 25.5984 140.172 26.0238C140.006 26.4492 139.922 26.9671 139.922 27.5774L138.924 26.107C138.924 25.0897 139.118 24.1834 139.506 23.3881C139.913 22.5928 140.44 21.9639 141.088 21.5015C141.735 21.0391 142.41 20.8079 143.113 20.8079C143.575 20.8079 144.019 20.9004 144.445 21.0854C144.87 21.2703 145.194 21.5293 145.416 21.8622L143.612 25.4412Z" fill="#003446"/>
<path d="M73.4523 21.5618L76.7554 33.8891L72.7624 34.959L69.4593 22.6317L73.4523 21.5618ZM78.1367 24.7873C77.8649 24.6304 77.5871 24.5229 77.3035 24.4648C77.0377 24.402 76.7262 24.4185 76.3689 24.5142C75.9758 24.6195 75.6562 24.8201 75.4099 25.1158C75.1636 25.4116 75.0152 25.7865 74.9645 26.2405C74.9138 26.6945 74.9674 27.2163 75.1254 27.8058L73.7801 26.644C73.5168 25.6614 73.4698 24.7357 73.6391 23.867C73.8263 22.9934 74.1727 22.2496 74.6784 21.6354C75.184 21.0212 75.7763 20.6231 76.4551 20.4412C76.9018 20.3215 77.3545 20.296 77.8133 20.3645C78.2721 20.4331 78.6517 20.5994 78.9523 20.8636L78.1367 24.7873Z" fill="#003446"/>
<mask id="path-5-outside-1_89_5038" maskUnits="userSpaceOnUse" x="150.567" y="12.041" width="80" height="24" fill="black">
<rect fill="white" x="150.567" y="12.041" width="80" height="24"/>
<path d="M151.567 15.2605H156.256V34.6812H151.567V15.2605ZM154.508 19.1169V15.2605H158.309C159.955 15.2605 161.333 15.5195 162.443 16.0374C163.571 16.5367 164.422 17.2581 164.996 18.2014C165.569 19.1447 165.856 20.2822 165.856 21.6139C165.856 22.9086 165.569 24.0368 164.996 24.9986C164.422 25.9419 163.571 26.6725 162.443 27.1904C161.333 27.6898 159.955 27.9395 158.309 27.9395H154.508V24.0831H158.309C159.253 24.0831 159.992 23.8704 160.529 23.445C161.065 23.0196 161.333 22.4092 161.333 21.6139C161.333 20.8 161.065 20.1804 160.529 19.755C159.992 19.3296 159.253 19.1169 158.309 19.1169H154.508Z"/>
<path d="M170.843 30.6861C170.843 31.019 170.926 31.3057 171.093 31.5462C171.259 31.7681 171.481 31.9438 171.759 32.0733C172.036 32.1843 172.341 32.2398 172.674 32.2398C173.155 32.2398 173.599 32.138 174.006 31.9346C174.413 31.7311 174.746 31.4259 175.005 31.019C175.264 30.6121 175.393 30.1127 175.393 29.5209L175.837 31.1855C175.837 31.9993 175.615 32.6929 175.171 33.2663C174.727 33.8212 174.154 34.2466 173.451 34.5425C172.748 34.8199 171.99 34.9587 171.176 34.9587C170.362 34.9587 169.604 34.8107 168.901 34.5148C168.217 34.2003 167.662 33.7379 167.236 33.1276C166.83 32.5172 166.626 31.7774 166.626 30.9081C166.626 29.6873 167.061 28.7255 167.93 28.0227C168.799 27.3014 170.029 26.9407 171.62 26.9407C172.397 26.9407 173.09 27.0147 173.701 27.1626C174.33 27.3106 174.866 27.4956 175.31 27.7175C175.754 27.9395 176.087 28.1707 176.309 28.4111V30.27C175.865 29.937 175.347 29.6873 174.755 29.5209C174.182 29.3359 173.571 29.2434 172.924 29.2434C172.425 29.2434 172.027 29.2989 171.731 29.4099C171.435 29.5209 171.213 29.6873 171.065 29.9093C170.917 30.1127 170.843 30.3717 170.843 30.6861ZM168.984 25.8309L167.569 23.0288C168.291 22.6774 169.16 22.3445 170.177 22.03C171.195 21.7156 172.304 21.5584 173.507 21.5584C174.635 21.5584 175.643 21.7248 176.531 22.0578C177.418 22.3722 178.121 22.8346 178.639 23.445C179.157 24.0553 179.416 24.8044 179.416 25.6922V34.6812H175.393V26.6355C175.393 26.3211 175.338 26.0529 175.227 25.8309C175.134 25.5905 174.986 25.387 174.783 25.2206C174.579 25.0541 174.32 24.9339 174.006 24.8599C173.71 24.7859 173.368 24.7489 172.979 24.7489C172.406 24.7489 171.842 24.8137 171.287 24.9431C170.751 25.0726 170.279 25.2298 169.872 25.4148C169.465 25.5812 169.169 25.72 168.984 25.8309Z"/>
<path d="M186.687 21.9191V34.6812H182.553V21.9191H186.687ZM190.377 26.2471C190.155 26.0251 189.914 25.8494 189.655 25.72C189.415 25.5905 189.11 25.5258 188.74 25.5258C188.333 25.5258 187.972 25.6367 187.658 25.8587C187.343 26.0806 187.103 26.4043 186.936 26.8297C186.77 27.2551 186.687 27.773 186.687 28.3834L185.688 26.9129C185.688 25.8957 185.882 24.9894 186.27 24.194C186.677 23.3987 187.205 22.7699 187.852 22.3075C188.499 21.8451 189.174 21.6139 189.877 21.6139C190.34 21.6139 190.783 21.7063 191.209 21.8913C191.634 22.0763 191.958 22.3352 192.18 22.6681L190.377 26.2471Z"/>
<path d="M198.176 13.041V34.6812H193.959V13.041H198.176ZM202.255 26.9129C202.255 26.1546 202.116 25.572 201.838 25.1651C201.561 24.7582 201.08 24.5547 200.396 24.5547C199.952 24.5547 199.563 24.6564 199.231 24.8599C198.898 25.0449 198.639 25.313 198.454 25.6645C198.269 25.9974 198.176 26.4136 198.176 26.9129H197.455C197.455 25.8957 197.621 24.9801 197.954 24.1663C198.287 23.334 198.787 22.6774 199.452 22.1965C200.137 21.6971 201.006 21.4474 202.06 21.4474C203.115 21.4474 203.956 21.6324 204.585 22.0023C205.232 22.3722 205.704 22.9178 206 23.6392C206.296 24.3605 206.444 25.2483 206.444 26.3026V34.6812H202.255V26.9129Z"/>
<path d="M213.001 30.6861C213.001 31.019 213.084 31.3057 213.251 31.5462C213.417 31.7681 213.639 31.9438 213.916 32.0733C214.194 32.1843 214.499 32.2398 214.832 32.2398C215.313 32.2398 215.757 32.138 216.164 31.9346C216.571 31.7311 216.903 31.4259 217.162 31.019C217.421 30.6121 217.551 30.1127 217.551 29.5209L217.995 31.1855C217.995 31.9993 217.773 32.6929 217.329 33.2663C216.885 33.8212 216.312 34.2466 215.609 34.5425C214.906 34.8199 214.148 34.9587 213.334 34.9587C212.52 34.9587 211.762 34.8107 211.059 34.5148C210.374 34.2003 209.82 33.7379 209.394 33.1276C208.987 32.5172 208.784 31.7774 208.784 30.9081C208.784 29.6873 209.218 28.7255 210.088 28.0227C210.957 27.3014 212.187 26.9407 213.778 26.9407C214.554 26.9407 215.248 27.0147 215.858 27.1626C216.487 27.3106 217.024 27.4956 217.468 27.7175C217.911 27.9395 218.244 28.1707 218.466 28.4111V30.27C218.022 29.937 217.505 29.6873 216.913 29.5209C216.339 29.3359 215.729 29.2434 215.082 29.2434C214.582 29.2434 214.185 29.2989 213.889 29.4099C213.593 29.5209 213.371 29.6873 213.223 29.9093C213.075 30.1127 213.001 30.3717 213.001 30.6861ZM211.142 25.8309L209.727 23.0288C210.448 22.6774 211.318 22.3445 212.335 22.03C213.352 21.7156 214.462 21.5584 215.664 21.5584C216.792 21.5584 217.801 21.7248 218.688 22.0578C219.576 22.3722 220.279 22.8346 220.797 23.445C221.315 24.0553 221.574 24.8044 221.574 25.6922V34.6812H217.551V26.6355C217.551 26.3211 217.495 26.0529 217.384 25.8309C217.292 25.5905 217.144 25.387 216.94 25.2206C216.737 25.0541 216.478 24.9339 216.164 24.8599C215.868 24.7859 215.526 24.7489 215.137 24.7489C214.564 24.7489 214 24.8137 213.445 24.9431C212.908 25.0726 212.437 25.2298 212.03 25.4148C211.623 25.5812 211.327 25.72 211.142 25.8309Z"/>
<path d="M224.877 21.9191H228.928V34.6812H224.877V21.9191Z"/>
</mask>
<path d="M151.567 15.2605H156.256V34.6812H151.567V15.2605ZM154.508 19.1169V15.2605H158.309C159.955 15.2605 161.333 15.5195 162.443 16.0374C163.571 16.5367 164.422 17.2581 164.996 18.2014C165.569 19.1447 165.856 20.2822 165.856 21.6139C165.856 22.9086 165.569 24.0368 164.996 24.9986C164.422 25.9419 163.571 26.6725 162.443 27.1904C161.333 27.6898 159.955 27.9395 158.309 27.9395H154.508V24.0831H158.309C159.253 24.0831 159.992 23.8704 160.529 23.445C161.065 23.0196 161.333 22.4092 161.333 21.6139C161.333 20.8 161.065 20.1804 160.529 19.755C159.992 19.3296 159.253 19.1169 158.309 19.1169H154.508Z" fill="white"/>
<path d="M170.843 30.6861C170.843 31.019 170.926 31.3057 171.093 31.5462C171.259 31.7681 171.481 31.9438 171.759 32.0733C172.036 32.1843 172.341 32.2398 172.674 32.2398C173.155 32.2398 173.599 32.138 174.006 31.9346C174.413 31.7311 174.746 31.4259 175.005 31.019C175.264 30.6121 175.393 30.1127 175.393 29.5209L175.837 31.1855C175.837 31.9993 175.615 32.6929 175.171 33.2663C174.727 33.8212 174.154 34.2466 173.451 34.5425C172.748 34.8199 171.99 34.9587 171.176 34.9587C170.362 34.9587 169.604 34.8107 168.901 34.5148C168.217 34.2003 167.662 33.7379 167.236 33.1276C166.83 32.5172 166.626 31.7774 166.626 30.9081C166.626 29.6873 167.061 28.7255 167.93 28.0227C168.799 27.3014 170.029 26.9407 171.62 26.9407C172.397 26.9407 173.09 27.0147 173.701 27.1626C174.33 27.3106 174.866 27.4956 175.31 27.7175C175.754 27.9395 176.087 28.1707 176.309 28.4111V30.27C175.865 29.937 175.347 29.6873 174.755 29.5209C174.182 29.3359 173.571 29.2434 172.924 29.2434C172.425 29.2434 172.027 29.2989 171.731 29.4099C171.435 29.5209 171.213 29.6873 171.065 29.9093C170.917 30.1127 170.843 30.3717 170.843 30.6861ZM168.984 25.8309L167.569 23.0288C168.291 22.6774 169.16 22.3445 170.177 22.03C171.195 21.7156 172.304 21.5584 173.507 21.5584C174.635 21.5584 175.643 21.7248 176.531 22.0578C177.418 22.3722 178.121 22.8346 178.639 23.445C179.157 24.0553 179.416 24.8044 179.416 25.6922V34.6812H175.393V26.6355C175.393 26.3211 175.338 26.0529 175.227 25.8309C175.134 25.5905 174.986 25.387 174.783 25.2206C174.579 25.0541 174.32 24.9339 174.006 24.8599C173.71 24.7859 173.368 24.7489 172.979 24.7489C172.406 24.7489 171.842 24.8137 171.287 24.9431C170.751 25.0726 170.279 25.2298 169.872 25.4148C169.465 25.5812 169.169 25.72 168.984 25.8309Z" fill="white"/>
<path d="M186.687 21.9191V34.6812H182.553V21.9191H186.687ZM190.377 26.2471C190.155 26.0251 189.914 25.8494 189.655 25.72C189.415 25.5905 189.11 25.5258 188.74 25.5258C188.333 25.5258 187.972 25.6367 187.658 25.8587C187.343 26.0806 187.103 26.4043 186.936 26.8297C186.77 27.2551 186.687 27.773 186.687 28.3834L185.688 26.9129C185.688 25.8957 185.882 24.9894 186.27 24.194C186.677 23.3987 187.205 22.7699 187.852 22.3075C188.499 21.8451 189.174 21.6139 189.877 21.6139C190.34 21.6139 190.783 21.7063 191.209 21.8913C191.634 22.0763 191.958 22.3352 192.18 22.6681L190.377 26.2471Z" fill="white"/>
<path d="M198.176 13.041V34.6812H193.959V13.041H198.176ZM202.255 26.9129C202.255 26.1546 202.116 25.572 201.838 25.1651C201.561 24.7582 201.08 24.5547 200.396 24.5547C199.952 24.5547 199.563 24.6564 199.231 24.8599C198.898 25.0449 198.639 25.313 198.454 25.6645C198.269 25.9974 198.176 26.4136 198.176 26.9129H197.455C197.455 25.8957 197.621 24.9801 197.954 24.1663C198.287 23.334 198.787 22.6774 199.452 22.1965C200.137 21.6971 201.006 21.4474 202.06 21.4474C203.115 21.4474 203.956 21.6324 204.585 22.0023C205.232 22.3722 205.704 22.9178 206 23.6392C206.296 24.3605 206.444 25.2483 206.444 26.3026V34.6812H202.255V26.9129Z" fill="white"/>
<path d="M213.001 30.6861C213.001 31.019 213.084 31.3057 213.251 31.5462C213.417 31.7681 213.639 31.9438 213.916 32.0733C214.194 32.1843 214.499 32.2398 214.832 32.2398C215.313 32.2398 215.757 32.138 216.164 31.9346C216.571 31.7311 216.903 31.4259 217.162 31.019C217.421 30.6121 217.551 30.1127 217.551 29.5209L217.995 31.1855C217.995 31.9993 217.773 32.6929 217.329 33.2663C216.885 33.8212 216.312 34.2466 215.609 34.5425C214.906 34.8199 214.148 34.9587 213.334 34.9587C212.52 34.9587 211.762 34.8107 211.059 34.5148C210.374 34.2003 209.82 33.7379 209.394 33.1276C208.987 32.5172 208.784 31.7774 208.784 30.9081C208.784 29.6873 209.218 28.7255 210.088 28.0227C210.957 27.3014 212.187 26.9407 213.778 26.9407C214.554 26.9407 215.248 27.0147 215.858 27.1626C216.487 27.3106 217.024 27.4956 217.468 27.7175C217.911 27.9395 218.244 28.1707 218.466 28.4111V30.27C218.022 29.937 217.505 29.6873 216.913 29.5209C216.339 29.3359 215.729 29.2434 215.082 29.2434C214.582 29.2434 214.185 29.2989 213.889 29.4099C213.593 29.5209 213.371 29.6873 213.223 29.9093C213.075 30.1127 213.001 30.3717 213.001 30.6861ZM211.142 25.8309L209.727 23.0288C210.448 22.6774 211.318 22.3445 212.335 22.03C213.352 21.7156 214.462 21.5584 215.664 21.5584C216.792 21.5584 217.801 21.7248 218.688 22.0578C219.576 22.3722 220.279 22.8346 220.797 23.445C221.315 24.0553 221.574 24.8044 221.574 25.6922V34.6812H217.551V26.6355C217.551 26.3211 217.495 26.0529 217.384 25.8309C217.292 25.5905 217.144 25.387 216.94 25.2206C216.737 25.0541 216.478 24.9339 216.164 24.8599C215.868 24.7859 215.526 24.7489 215.137 24.7489C214.564 24.7489 214 24.8137 213.445 24.9431C212.908 25.0726 212.437 25.2298 212.03 25.4148C211.623 25.5812 211.327 25.72 211.142 25.8309Z" fill="white"/>
<path d="M224.877 21.9191H228.928V34.6812H224.877V21.9191Z" fill="white"/>
<path d="M151.567 15.2605H156.256V34.6812H151.567V15.2605ZM154.508 19.1169V15.2605H158.309C159.955 15.2605 161.333 15.5195 162.443 16.0374C163.571 16.5367 164.422 17.2581 164.996 18.2014C165.569 19.1447 165.856 20.2822 165.856 21.6139C165.856 22.9086 165.569 24.0368 164.996 24.9986C164.422 25.9419 163.571 26.6725 162.443 27.1904C161.333 27.6898 159.955 27.9395 158.309 27.9395H154.508V24.0831H158.309C159.253 24.0831 159.992 23.8704 160.529 23.445C161.065 23.0196 161.333 22.4092 161.333 21.6139C161.333 20.8 161.065 20.1804 160.529 19.755C159.992 19.3296 159.253 19.1169 158.309 19.1169H154.508Z" stroke="#003446" stroke-width="1.5" mask="url(#path-5-outside-1_89_5038)"/>
<path d="M170.843 30.6861C170.843 31.019 170.926 31.3057 171.093 31.5462C171.259 31.7681 171.481 31.9438 171.759 32.0733C172.036 32.1843 172.341 32.2398 172.674 32.2398C173.155 32.2398 173.599 32.138 174.006 31.9346C174.413 31.7311 174.746 31.4259 175.005 31.019C175.264 30.6121 175.393 30.1127 175.393 29.5209L175.837 31.1855C175.837 31.9993 175.615 32.6929 175.171 33.2663C174.727 33.8212 174.154 34.2466 173.451 34.5425C172.748 34.8199 171.99 34.9587 171.176 34.9587C170.362 34.9587 169.604 34.8107 168.901 34.5148C168.217 34.2003 167.662 33.7379 167.236 33.1276C166.83 32.5172 166.626 31.7774 166.626 30.9081C166.626 29.6873 167.061 28.7255 167.93 28.0227C168.799 27.3014 170.029 26.9407 171.62 26.9407C172.397 26.9407 173.09 27.0147 173.701 27.1626C174.33 27.3106 174.866 27.4956 175.31 27.7175C175.754 27.9395 176.087 28.1707 176.309 28.4111V30.27C175.865 29.937 175.347 29.6873 174.755 29.5209C174.182 29.3359 173.571 29.2434 172.924 29.2434C172.425 29.2434 172.027 29.2989 171.731 29.4099C171.435 29.5209 171.213 29.6873 171.065 29.9093C170.917 30.1127 170.843 30.3717 170.843 30.6861ZM168.984 25.8309L167.569 23.0288C168.291 22.6774 169.16 22.3445 170.177 22.03C171.195 21.7156 172.304 21.5584 173.507 21.5584C174.635 21.5584 175.643 21.7248 176.531 22.0578C177.418 22.3722 178.121 22.8346 178.639 23.445C179.157 24.0553 179.416 24.8044 179.416 25.6922V34.6812H175.393V26.6355C175.393 26.3211 175.338 26.0529 175.227 25.8309C175.134 25.5905 174.986 25.387 174.783 25.2206C174.579 25.0541 174.32 24.9339 174.006 24.8599C173.71 24.7859 173.368 24.7489 172.979 24.7489C172.406 24.7489 171.842 24.8137 171.287 24.9431C170.751 25.0726 170.279 25.2298 169.872 25.4148C169.465 25.5812 169.169 25.72 168.984 25.8309Z" stroke="#003446" stroke-width="1.5" mask="url(#path-5-outside-1_89_5038)"/>
<path d="M186.687 21.9191V34.6812H182.553V21.9191H186.687ZM190.377 26.2471C190.155 26.0251 189.914 25.8494 189.655 25.72C189.415 25.5905 189.11 25.5258 188.74 25.5258C188.333 25.5258 187.972 25.6367 187.658 25.8587C187.343 26.0806 187.103 26.4043 186.936 26.8297C186.77 27.2551 186.687 27.773 186.687 28.3834L185.688 26.9129C185.688 25.8957 185.882 24.9894 186.27 24.194C186.677 23.3987 187.205 22.7699 187.852 22.3075C188.499 21.8451 189.174 21.6139 189.877 21.6139C190.34 21.6139 190.783 21.7063 191.209 21.8913C191.634 22.0763 191.958 22.3352 192.18 22.6681L190.377 26.2471Z" stroke="#003446" stroke-width="1.5" mask="url(#path-5-outside-1_89_5038)"/>
<path d="M198.176 13.041V34.6812H193.959V13.041H198.176ZM202.255 26.9129C202.255 26.1546 202.116 25.572 201.838 25.1651C201.561 24.7582 201.08 24.5547 200.396 24.5547C199.952 24.5547 199.563 24.6564 199.231 24.8599C198.898 25.0449 198.639 25.313 198.454 25.6645C198.269 25.9974 198.176 26.4136 198.176 26.9129H197.455C197.455 25.8957 197.621 24.9801 197.954 24.1663C198.287 23.334 198.787 22.6774 199.452 22.1965C200.137 21.6971 201.006 21.4474 202.06 21.4474C203.115 21.4474 203.956 21.6324 204.585 22.0023C205.232 22.3722 205.704 22.9178 206 23.6392C206.296 24.3605 206.444 25.2483 206.444 26.3026V34.6812H202.255V26.9129Z" stroke="#003446" stroke-width="1.5" mask="url(#path-5-outside-1_89_5038)"/>
<path d="M213.001 30.6861C213.001 31.019 213.084 31.3057 213.251 31.5462C213.417 31.7681 213.639 31.9438 213.916 32.0733C214.194 32.1843 214.499 32.2398 214.832 32.2398C215.313 32.2398 215.757 32.138 216.164 31.9346C216.571 31.7311 216.903 31.4259 217.162 31.019C217.421 30.6121 217.551 30.1127 217.551 29.5209L217.995 31.1855C217.995 31.9993 217.773 32.6929 217.329 33.2663C216.885 33.8212 216.312 34.2466 215.609 34.5425C214.906 34.8199 214.148 34.9587 213.334 34.9587C212.52 34.9587 211.762 34.8107 211.059 34.5148C210.374 34.2003 209.82 33.7379 209.394 33.1276C208.987 32.5172 208.784 31.7774 208.784 30.9081C208.784 29.6873 209.218 28.7255 210.088 28.0227C210.957 27.3014 212.187 26.9407 213.778 26.9407C214.554 26.9407 215.248 27.0147 215.858 27.1626C216.487 27.3106 217.024 27.4956 217.468 27.7175C217.911 27.9395 218.244 28.1707 218.466 28.4111V30.27C218.022 29.937 217.505 29.6873 216.913 29.5209C216.339 29.3359 215.729 29.2434 215.082 29.2434C214.582 29.2434 214.185 29.2989 213.889 29.4099C213.593 29.5209 213.371 29.6873 213.223 29.9093C213.075 30.1127 213.001 30.3717 213.001 30.6861ZM211.142 25.8309L209.727 23.0288C210.448 22.6774 211.318 22.3445 212.335 22.03C213.352 21.7156 214.462 21.5584 215.664 21.5584C216.792 21.5584 217.801 21.7248 218.688 22.0578C219.576 22.3722 220.279 22.8346 220.797 23.445C221.315 24.0553 221.574 24.8044 221.574 25.6922V34.6812H217.551V26.6355C217.551 26.3211 217.495 26.0529 217.384 25.8309C217.292 25.5905 217.144 25.387 216.94 25.2206C216.737 25.0541 216.478 24.9339 216.164 24.8599C215.868 24.7859 215.526 24.7489 215.137 24.7489C214.564 24.7489 214 24.8137 213.445 24.9431C212.908 25.0726 212.437 25.2298 212.03 25.4148C211.623 25.5812 211.327 25.72 211.142 25.8309Z" stroke="#003446" stroke-width="1.5" mask="url(#path-5-outside-1_89_5038)"/>
<path d="M224.877 21.9191H228.928V34.6812H224.877V21.9191Z" stroke="#003446" stroke-width="1.5" mask="url(#path-5-outside-1_89_5038)"/>
<rect width="13.3291" height="4.99842" transform="translate(215.65 13.041)" fill="#C9F0F8"/>
<path d="M239.445 28.5381C239.718 28.5381 239.998 28.574 240.286 28.6459C240.573 28.7178 240.865 28.8333 241.16 28.9922V29.7076C240.88 29.56 240.602 29.4502 240.325 29.3783C240.049 29.3026 239.784 29.2647 239.531 29.2647C239.319 29.2647 239.122 29.295 238.94 29.3556C238.758 29.4161 238.599 29.5089 238.463 29.6338C238.331 29.7549 238.225 29.9081 238.145 30.0936C238.07 30.2753 238.032 30.4891 238.032 30.7351C238.032 30.9811 238.07 31.1968 238.145 31.3823C238.225 31.564 238.331 31.7172 238.463 31.8421C238.599 31.9633 238.758 32.0541 238.94 32.1146C239.122 32.1752 239.319 32.2055 239.531 32.2055C239.784 32.2055 240.049 32.1695 240.325 32.0976C240.602 32.0219 240.88 31.9103 241.16 31.7627V32.478C240.865 32.6369 240.573 32.7524 240.286 32.8243C239.998 32.8962 239.718 32.9321 239.445 32.9321C239.105 32.9321 238.787 32.8754 238.492 32.7618C238.196 32.6445 237.941 32.4874 237.725 32.2906C237.509 32.09 237.339 31.8573 237.214 31.5923C237.089 31.3236 237.027 31.0379 237.027 30.7351C237.027 30.4323 237.089 30.1485 237.214 29.8835C237.339 29.6148 237.509 29.3821 237.725 29.1853C237.941 28.9847 238.196 28.8276 238.492 28.7141C238.787 28.5967 239.105 28.5381 239.445 28.5381ZM239.36 34.9589C239.001 34.9589 238.647 34.9153 238.299 34.8283C237.95 34.7375 237.619 34.6088 237.305 34.4422C236.991 34.2719 236.701 34.0657 236.436 33.8234C236.172 33.5774 235.943 33.2993 235.75 32.9889C235.557 32.6748 235.405 32.3304 235.295 31.9557C235.186 31.5772 235.131 31.1722 235.131 30.7408C235.131 30.3093 235.188 29.9063 235.301 29.5316C235.415 29.1531 235.572 28.8068 235.772 28.4927C235.973 28.1785 236.208 27.8985 236.476 27.6524C236.749 27.4027 237.04 27.1926 237.351 27.0223C237.665 26.852 237.992 26.7233 238.333 26.6363C238.677 26.5454 239.02 26.5 239.36 26.5C239.705 26.5 240.047 26.5454 240.388 26.6363C240.732 26.7271 241.061 26.8577 241.376 27.028C241.69 27.1983 241.981 27.4083 242.25 27.6581C242.519 27.9041 242.751 28.1842 242.948 28.4983C243.149 28.8125 243.306 29.1588 243.419 29.5372C243.533 29.9119 243.59 30.3131 243.59 30.7408C243.59 31.1609 243.537 31.5583 243.431 31.933C243.325 32.3039 243.175 32.6464 242.982 32.9605C242.793 33.2709 242.566 33.5509 242.301 33.8007C242.04 34.0467 241.752 34.2568 241.438 34.4309C241.128 34.6012 240.795 34.7318 240.439 34.8226C240.087 34.9134 239.727 34.9589 239.36 34.9589ZM242.749 30.7465C242.749 30.3793 242.702 30.0387 242.607 29.7246C242.517 29.4067 242.39 29.1171 242.227 28.856C242.064 28.5911 241.873 28.3564 241.654 28.152C241.434 27.9477 241.2 27.7773 240.95 27.6411C240.7 27.5011 240.439 27.3951 240.166 27.3232C239.894 27.2475 239.625 27.2096 239.36 27.2096C239.088 27.2096 238.815 27.2475 238.543 27.3232C238.27 27.3951 238.007 27.5011 237.754 27.6411C237.504 27.7811 237.269 27.9533 237.05 28.1577C236.834 28.3621 236.647 28.5967 236.488 28.8617C236.329 29.1228 236.202 29.4123 236.107 29.7303C236.016 30.0444 235.971 30.3831 235.971 30.7465C235.971 31.2309 236.052 31.687 236.215 32.1146C236.378 32.5385 236.607 32.9094 236.902 33.2273C237.201 33.5453 237.559 33.7969 237.975 33.9824C238.391 34.1641 238.853 34.2549 239.36 34.2549C239.867 34.2549 240.329 34.1641 240.745 33.9824C241.162 33.7969 241.517 33.5453 241.813 33.2273C242.112 32.9094 242.343 32.5385 242.505 32.1146C242.668 31.687 242.749 31.2309 242.749 30.7465Z" fill="#003446"/>
</svg>
