<svg xmlns="http://www.w3.org/2000/svg" width="83" height="80" viewBox="0 0 83 80" fill="none">
  <path d="M9.5 76.0001C10.6514 73.8412 12.8716 67.6556 13.7137 58.538C13.9793 55.6624 12.7386 52.9075 10.9516 50.6389C6.05109 44.4174 0.732546 33.4893 5 22C11.5 4.50005 27 2.90001 35 4.50005C44.8964 6.47932 55.7721 14.8246 55.0272 30.9897C55.012 31.3211 55.0732 31.6576 55.2129 31.9586L60.3791 43.0858C60.94 44.2938 60.1856 45.7023 58.8692 45.9048L55.8479 46.3696C55.3601 46.4446 55 46.8644 55 47.358V50C55 51.1046 54.1046 52 53 52H51M23.5 58.5V58.5C23.5 62.0899 26.4101 65 30 65H50.5C51.6046 65 52.5 64.1046 52.5 63V60.5C52.5 59.3955 53.3954 58.5 54.5 58.5H58.8957C59.8331 58.5 60.6447 57.849 60.848 56.9339L61.4217 54.3525C61.4437 54.2535 61.5821 54.2463 61.6142 54.3425L64.3784 62.6352C64.411 62.733 64.5523 62.7234 64.5715 62.6221L67.8703 45.1856C67.8918 45.072 68.0568 45.0794 68.0681 45.1944L70.4382 69.3695C70.4493 69.4829 70.611 69.4924 70.6354 69.3811L73.9223 54.355C73.9441 54.2558 74.0828 54.2484 74.1149 54.3448L75.4772 58.4317C75.4908 58.4725 75.529 58.5 75.5721 58.5H81.5M39.5 68.5L38.5 76.5" stroke="#204D5D" stroke-width="1.5" stroke-linecap="round" stroke-linejoin="round"/>
  <path d="M35.1094 39.5001C36.5663 36.6633 38 32.8604 38 29.2546C38 25.6488 36.5663 21.9867 35.1094 19.293" stroke="#C9F0F8" stroke-width="1.5" stroke-linecap="round" stroke-linejoin="round"/>
  <path d="M30.8862 36.5C31.5367 34.3974 32 32.1053 32 29.8868C32 27.6682 31.5367 25.4287 30.8862 23.3997" stroke="#C9F0F8" stroke-width="1.5" stroke-linecap="round" stroke-linejoin="round"/>
  <path d="M26 25C26.6145 26.4508 27 27.9645 27 29.4686C27 30.9727 26.6145 32.5106 26 34" stroke="#C9F0F8" stroke-width="1.5" stroke-linecap="round" stroke-linejoin="round"/>
  <path d="M20.5 28V32" stroke="#C9F0F8" stroke-width="1.5" stroke-linecap="round" stroke-linejoin="round"/>
  <rect x="66" y="3" width="6" height="13" rx="3" stroke="#BCCACE" stroke-width="1.5" stroke-linecap="round" stroke-linejoin="round"/>
  <path d="M61.5 11.5C61.3333 14.8333 62.6 21.5 69 21.5M69 21.5C75.4 21.5 76.6667 14.8333 76.5 11.5M69 21.5V28.5M69 28.5H72M69 28.5H66" stroke="#204D5D" stroke-width="1.5" stroke-linecap="round" stroke-linejoin="round"/>
</svg>